<svg xmlns="http://www.w3.org/2000/svg" xmlns:xlink="http://www.w3.org/1999/xlink" width="500" zoomAndPan="magnify" viewBox="0 0 375 374.999991" height="500" preserveAspectRatio="xMidYMid meet" version="1.0"><defs><g/><clipPath id="d9327e7765"><path d="M 128 116.511719 L 247 116.511719 L 247 197.511719 L 128 197.511719 Z M 128 116.511719 " clip-rule="nonzero"/></clipPath></defs><g fill="#365b6d" fill-opacity="1"><g transform="translate(81.030131, 234.741225)"><g><path d="M 14.828125 -31.058594 L 3.785156 -31.058594 L 3.785156 0 L 14.828125 0 C 24.902344 0 29.960938 -7.65625 29.960938 -15.355469 C 29.960938 -23.054688 24.902344 -31.058594 14.828125 -31.058594 Z M 14.828125 -4.445312 L 8.226562 -4.445312 L 8.226562 -26.617188 L 14.828125 -26.617188 C 21.953125 -26.617188 25.5625 -20.808594 25.5625 -15.355469 C 25.5625 -9.898438 21.953125 -4.445312 14.828125 -4.445312 Z M 14.828125 -4.445312 "/></g></g></g><g fill="#365b6d" fill-opacity="1"><g transform="translate(112.924447, 234.741225)"><g><path d="M 28.023438 0 L 28.023438 -23.800781 L 23.714844 -23.800781 L 23.757812 -20.632812 C 21.644531 -23.492188 18.082031 -24.195312 15.132812 -24.195312 C 7.082031 -24.195312 2.417969 -18.433594 2.417969 -12.011719 C 2.417969 -5.457031 6.90625 0.394531 15.222656 0.394531 C 18.171875 0.351562 21.996094 -0.617188 23.714844 -3.210938 L 23.714844 0 Z M 23.714844 -11.921875 C 23.714844 -6.203125 19.09375 -3.429688 15.132812 -3.429688 C 9.855469 -3.429688 6.730469 -7.523438 6.730469 -12.011719 C 6.730469 -16.71875 9.898438 -20.414062 15.132812 -20.414062 C 19.183594 -20.414062 23.714844 -17.597656 23.714844 -11.921875 Z M 23.714844 -11.921875 "/></g></g></g><g fill="#365b6d" fill-opacity="1"><g transform="translate(143.806944, 234.741225)"><g><path d="M 3.035156 -29.917969 C 3.035156 -28.246094 4.398438 -27.410156 5.71875 -27.410156 C 7.082031 -27.410156 8.402344 -28.246094 8.402344 -29.917969 C 8.402344 -31.589844 7.082031 -32.378906 5.761719 -32.378906 C 4.398438 -32.378906 3.035156 -31.542969 3.035156 -29.917969 Z M 3.5625 -24.066406 L 7.875 -24.066406 L 7.875 0 L 3.5625 0 Z M 3.5625 -24.066406 "/></g></g></g><g fill="#365b6d" fill-opacity="1"><g transform="translate(155.640833, 234.741225)"><g><path d="M 3.300781 0 L 7.609375 0 L 7.609375 -30.796875 L 3.300781 -30.796875 Z M 3.300781 0 "/></g></g></g><g fill="#365b6d" fill-opacity="1"><g transform="translate(166.550885, 234.741225)"><g><path d="M 19.3125 -24.152344 L 15.222656 -13.550781 L 12.449219 -5.808594 L 9.765625 -13.59375 L 5.457031 -24.152344 L 0.878906 -24.152344 L 10.164062 -1.230469 L 6.820312 7.347656 L 11.394531 7.347656 L 23.890625 -24.152344 Z M 19.3125 -24.152344 "/></g></g></g><g fill="#365b6d" fill-opacity="1"><g transform="translate(191.274482, 234.741225)"><g><path d="M 4.398438 -5.28125 C 2.949219 -5.28125 1.761719 -4.179688 1.761719 -2.550781 C 1.761719 -1.230469 2.949219 0.132812 4.398438 0.132812 C 6.027344 0.132812 7.171875 -1.230469 7.171875 -2.550781 C 7.171875 -4.179688 6.027344 -5.28125 4.398438 -5.28125 Z M 4.398438 -5.28125 "/></g></g></g><g fill="#365b6d" fill-opacity="1"><g transform="translate(200.468848, 234.741225)"><g><path d="M 7.742188 -17.289062 L 5.761719 -23.800781 L 1.230469 -23.800781 L 9.019531 0.175781 L 12.273438 0.175781 L 15.222656 -9.152344 L 17.289062 -16.320312 L 19.359375 -9.152344 L 22.261719 0.175781 L 25.5625 0.175781 L 33.347656 -23.800781 L 28.816406 -23.800781 L 26.792969 -17.289062 L 23.976562 -7.082031 L 19.183594 -23.800781 L 15.355469 -23.800781 L 10.601562 -7.082031 Z M 7.742188 -17.289062 "/></g></g></g><g fill="#365b6d" fill-opacity="1"><g transform="translate(234.958706, 234.741225)"><g><path d="M 26.660156 -12.933594 C 26.175781 -20.414062 20.371094 -24.152344 14.472656 -24.152344 C 8.183594 -24.152344 2.113281 -20.0625 2.113281 -11.878906 C 2.113281 -3.695312 8.269531 0.441406 14.386719 0.441406 C 19.269531 0.441406 24.152344 -2.15625 25.957031 -7.347656 L 21.511719 -7.347656 C 20.105469 -4.664062 17.378906 -3.386719 14.429688 -3.386719 C 10.867188 -3.386719 6.421875 -6.203125 6.421875 -10.867188 L 26.574219 -10.867188 C 26.660156 -11.261719 26.703125 -11.703125 26.703125 -12.1875 C 26.703125 -12.449219 26.703125 -12.671875 26.660156 -12.933594 Z M 22.128906 -14.429688 L 6.597656 -14.429688 C 7.480469 -18.652344 11 -20.371094 14.472656 -20.371094 C 17.90625 -20.371094 21.292969 -18.699219 22.128906 -14.429688 Z M 22.128906 -14.429688 "/></g></g></g><g fill="#365b6d" fill-opacity="1"><g transform="translate(263.993532, 234.741225)"><g><path d="M 7.742188 -20.722656 L 7.742188 -30.796875 L 3.429688 -30.796875 L 3.429688 0 L 7.742188 0 L 7.742188 -3.210938 C 9.457031 -0.617188 12.714844 0.351562 15.664062 0.394531 C 23.976562 0.394531 27.980469 -5.457031 27.980469 -12.011719 C 27.980469 -18.433594 23.800781 -24.195312 15.75 -24.195312 C 12.800781 -24.195312 9.8125 -23.539062 7.742188 -20.722656 Z M 7.742188 -11.921875 C 7.742188 -17.597656 11.746094 -20.414062 15.75 -20.414062 C 21.03125 -20.414062 23.667969 -16.191406 23.667969 -11.921875 C 23.667969 -7.609375 20.984375 -3.429688 15.707031 -3.429688 C 11.746094 -3.429688 7.742188 -6.203125 7.742188 -11.921875 Z M 7.742188 -11.921875 "/></g></g></g><g clip-path="url(#d9327e7765)"><path fill="#289dd2" d="M 231.988281 193.875 L 142.925781 193.875 C 137.636719 193.875 133.242188 190.035156 132.375 184.996094 L 242.53125 184.996094 C 241.6875 190.035156 237.28125 193.875 231.988281 193.875 Z M 139.128906 122.339844 C 139.128906 121.058594 140.128906 120.050781 141.414062 120.050781 L 233.480469 120.050781 C 234.765625 120.050781 235.777344 121.058594 235.777344 122.339844 L 235.777344 181.417969 L 139.128906 181.417969 Z M 244.464844 181.4375 L 239.359375 181.4375 L 239.359375 122.339844 C 239.359375 119.125 236.738281 116.5 233.492188 116.5 L 141.414062 116.5 C 138.1875 116.5 135.558594 119.125 135.558594 122.339844 L 135.558594 181.417969 L 130.453125 181.417969 C 129.460938 181.4375 128.667969 182.226562 128.667969 183.21875 C 128.667969 191.054688 135.066406 197.433594 142.925781 197.433594 L 231.988281 197.433594 C 239.847656 197.433594 246.25 191.054688 246.25 183.21875 C 246.25 182.226562 245.464844 181.4375 244.464844 181.4375 " fill-opacity="1" fill-rule="nonzero"/></g><path fill="#289dd2" d="M 225.558594 173.507812 L 149.359375 173.507812 L 149.359375 128.074219 L 225.546875 128.074219 L 225.546875 173.507812 Z M 227.34375 124.527344 L 147.574219 124.527344 C 146.582031 124.527344 145.789062 125.316406 145.789062 126.304688 L 145.789062 175.285156 C 145.789062 176.273438 146.582031 177.066406 147.574219 177.066406 L 227.324219 177.066406 C 228.316406 177.066406 229.109375 176.273438 229.109375 175.285156 L 229.109375 126.304688 C 229.128906 125.316406 228.316406 124.527344 227.34375 124.527344 " fill-opacity="1" fill-rule="nonzero"/><path fill="#289dd2" d="M 182.4375 164.898438 C 182.644531 164.972656 182.835938 165.003906 183.03125 165.003906 C 183.761719 165.003906 184.441406 164.546875 184.703125 163.816406 L 193.460938 138.941406 C 193.792969 138.003906 193.292969 136.996094 192.386719 136.671875 C 191.445312 136.339844 190.433594 136.839844 190.097656 137.753906 L 181.339844 162.628906 C 181.027344 163.554688 181.527344 164.566406 182.4375 164.898438 Z M 210.277344 151.160156 L 198.355469 160.578125 C 197.582031 161.183594 197.449219 162.296875 198.0625 163.066406 C 198.410156 163.503906 198.941406 163.742188 199.453125 163.742188 C 199.839844 163.742188 200.226562 163.617188 200.558594 163.359375 L 214.234375 152.566406 C 214.652344 152.242188 214.910156 151.722656 214.910156 151.191406 C 214.910156 150.660156 214.660156 150.152344 214.242188 149.808594 L 200.003906 138.222656 C 199.234375 137.609375 198.117188 137.714844 197.511719 138.484375 C 196.882812 139.253906 197 140.367188 197.761719 140.972656 Z M 174.359375 163.359375 C 174.691406 163.617188 175.078125 163.742188 175.464844 163.742188 C 175.996094 163.742188 176.507812 163.503906 176.851562 163.066406 C 177.46875 162.296875 177.332031 161.183594 176.558594 160.578125 L 164.640625 151.160156 L 177.15625 140.972656 C 177.917969 140.355469 178.03125 139.234375 177.40625 138.484375 C 176.789062 137.714844 175.664062 137.609375 174.910156 138.222656 L 160.671875 149.808594 C 160.253906 150.152344 160.003906 150.640625 160.003906 151.191406 C 160.003906 151.722656 160.265625 152.242188 160.695312 152.566406 L 174.359375 163.359375 " fill-opacity="1" fill-rule="nonzero"/><g fill="#289dd2" fill-opacity="1"><g transform="translate(113.311779, 258.820939)"><g><path d="M 15.515625 -12.65625 C 15.804688 -12.65625 16.070312 -12.539062 16.3125 -12.3125 C 16.5625 -12.09375 16.6875 -11.816406 16.6875 -11.484375 C 16.6875 -11.378906 16.664062 -11.257812 16.625 -11.125 L 13.078125 -0.6875 C 13.015625 -0.476562 12.890625 -0.3125 12.703125 -0.1875 C 12.523438 -0.0703125 12.328125 -0.0078125 12.109375 0 C 11.898438 0 11.695312 -0.0546875 11.5 -0.171875 C 11.3125 -0.296875 11.160156 -0.472656 11.046875 -0.703125 L 8.5 -6.515625 L 5.921875 -0.703125 C 5.816406 -0.472656 5.664062 -0.296875 5.46875 -0.171875 C 5.28125 -0.0546875 5.078125 0 4.859375 0 C 4.640625 -0.0078125 4.441406 -0.0703125 4.265625 -0.1875 C 4.085938 -0.3125 3.960938 -0.476562 3.890625 -0.6875 L 0.34375 -11.125 C 0.300781 -11.257812 0.28125 -11.378906 0.28125 -11.484375 C 0.28125 -11.816406 0.40625 -12.09375 0.65625 -12.3125 C 0.90625 -12.539062 1.175781 -12.65625 1.46875 -12.65625 C 1.71875 -12.65625 1.9375 -12.59375 2.125 -12.46875 C 2.3125 -12.34375 2.441406 -12.171875 2.515625 -11.953125 L 5.203125 -3.8125 L 7.546875 -9.4375 C 7.640625 -9.644531 7.773438 -9.8125 7.953125 -9.9375 C 8.128906 -10.070312 8.332031 -10.128906 8.5625 -10.109375 C 8.789062 -10.128906 8.992188 -10.070312 9.171875 -9.9375 C 9.347656 -9.8125 9.484375 -9.644531 9.578125 -9.4375 L 11.796875 -3.875 L 14.453125 -11.953125 C 14.523438 -12.171875 14.660156 -12.34375 14.859375 -12.46875 C 15.054688 -12.59375 15.273438 -12.65625 15.515625 -12.65625 Z M 15.515625 -12.65625 "/></g></g></g><g fill="#289dd2" fill-opacity="1"><g transform="translate(130.807726, 258.820939)"><g><path d="M 9.8125 -5.046875 C 9.800781 -4.753906 9.6875 -4.515625 9.46875 -4.328125 C 9.25 -4.148438 9 -4.0625 8.71875 -4.0625 L 2.765625 -4.0625 C 2.910156 -3.351562 3.238281 -2.796875 3.75 -2.390625 C 4.269531 -1.992188 4.859375 -1.796875 5.515625 -1.796875 C 6.003906 -1.796875 6.382812 -1.835938 6.65625 -1.921875 C 6.9375 -2.015625 7.15625 -2.113281 7.3125 -2.21875 C 7.476562 -2.320312 7.59375 -2.394531 7.65625 -2.4375 C 7.863281 -2.539062 8.066406 -2.59375 8.265625 -2.59375 C 8.515625 -2.59375 8.726562 -2.5 8.90625 -2.3125 C 9.09375 -2.132812 9.1875 -1.925781 9.1875 -1.6875 C 9.1875 -1.363281 9.015625 -1.070312 8.671875 -0.8125 C 8.335938 -0.53125 7.890625 -0.289062 7.328125 -0.09375 C 6.765625 0.09375 6.191406 0.1875 5.609375 0.1875 C 4.609375 0.1875 3.734375 -0.0195312 2.984375 -0.4375 C 2.234375 -0.863281 1.648438 -1.445312 1.234375 -2.1875 C 0.828125 -2.925781 0.625 -3.757812 0.625 -4.6875 C 0.625 -5.71875 0.835938 -6.617188 1.265625 -7.390625 C 1.703125 -8.171875 2.273438 -8.769531 2.984375 -9.1875 C 3.691406 -9.601562 4.445312 -9.8125 5.25 -9.8125 C 6.039062 -9.8125 6.785156 -9.59375 7.484375 -9.15625 C 8.191406 -8.726562 8.753906 -8.144531 9.171875 -7.40625 C 9.597656 -6.675781 9.8125 -5.890625 9.8125 -5.046875 Z M 5.25 -7.828125 C 3.863281 -7.828125 3.046875 -7.175781 2.796875 -5.875 L 7.5 -5.875 L 7.5 -6 C 7.457031 -6.5 7.210938 -6.925781 6.765625 -7.28125 C 6.328125 -7.644531 5.820312 -7.828125 5.25 -7.828125 Z M 5.25 -7.828125 "/></g></g></g><g fill="#289dd2" fill-opacity="1"><g transform="translate(141.769692, 258.820939)"><g><path d="M 6.15625 -9.8125 C 6.976562 -9.8125 7.722656 -9.597656 8.390625 -9.171875 C 9.066406 -8.742188 9.597656 -8.148438 9.984375 -7.390625 C 10.378906 -6.640625 10.578125 -5.785156 10.578125 -4.828125 C 10.578125 -3.867188 10.382812 -3.003906 10 -2.234375 C 9.625 -1.472656 9.101562 -0.878906 8.4375 -0.453125 C 7.769531 -0.0234375 7.035156 0.1875 6.234375 0.1875 C 5.648438 0.1875 5.101562 0.0703125 4.59375 -0.15625 C 4.082031 -0.394531 3.660156 -0.6875 3.328125 -1.03125 L 3.328125 -0.921875 C 3.328125 -0.609375 3.222656 -0.34375 3.015625 -0.125 C 2.816406 0.0820312 2.5625 0.1875 2.25 0.1875 C 1.9375 0.1875 1.675781 0.0820312 1.46875 -0.125 C 1.269531 -0.332031 1.171875 -0.597656 1.171875 -0.921875 L 1.171875 -12.21875 C 1.171875 -12.53125 1.269531 -12.789062 1.46875 -13 C 1.675781 -13.207031 1.9375 -13.3125 2.25 -13.3125 C 2.5625 -13.3125 2.816406 -13.207031 3.015625 -13 C 3.222656 -12.789062 3.328125 -12.53125 3.328125 -12.21875 L 3.328125 -8.453125 C 3.617188 -8.816406 4.019531 -9.132812 4.53125 -9.40625 C 5.050781 -9.675781 5.59375 -9.8125 6.15625 -9.8125 Z M 5.890625 -1.796875 C 6.648438 -1.796875 7.273438 -2.082031 7.765625 -2.65625 C 8.265625 -3.238281 8.515625 -3.960938 8.515625 -4.828125 C 8.515625 -5.691406 8.269531 -6.40625 7.78125 -6.96875 C 7.300781 -7.539062 6.671875 -7.828125 5.890625 -7.828125 C 5.109375 -7.828125 4.46875 -7.539062 3.96875 -6.96875 C 3.476562 -6.40625 3.234375 -5.691406 3.234375 -4.828125 C 3.234375 -3.960938 3.476562 -3.238281 3.96875 -2.65625 C 4.46875 -2.082031 5.109375 -1.796875 5.890625 -1.796875 Z M 5.890625 -1.796875 "/></g></g></g><g fill="#289dd2" fill-opacity="1"><g transform="translate(153.505656, 258.820939)"><g/></g></g><g fill="#289dd2" fill-opacity="1"><g transform="translate(159.067647, 258.820939)"><g><path d="M 6.75 -12.59375 C 7.875 -12.59375 8.84375 -12.3125 9.65625 -11.75 C 10.46875 -11.195312 11.085938 -10.441406 11.515625 -9.484375 C 11.941406 -8.535156 12.15625 -7.472656 12.15625 -6.296875 C 12.15625 -5.117188 11.941406 -4.050781 11.515625 -3.09375 C 11.085938 -2.144531 10.46875 -1.390625 9.65625 -0.828125 C 8.84375 -0.273438 7.875 0 6.75 0 L 2.453125 0 C 2.140625 0 1.875 -0.101562 1.65625 -0.3125 C 1.445312 -0.519531 1.34375 -0.78125 1.34375 -1.09375 L 1.34375 -11.5 C 1.34375 -11.8125 1.445312 -12.070312 1.65625 -12.28125 C 1.875 -12.488281 2.140625 -12.59375 2.453125 -12.59375 Z M 6.5625 -2.0625 C 7.644531 -2.0625 8.457031 -2.460938 9 -3.265625 C 9.539062 -4.066406 9.8125 -5.078125 9.8125 -6.296875 C 9.8125 -7.523438 9.535156 -8.535156 8.984375 -9.328125 C 8.441406 -10.128906 7.632812 -10.53125 6.5625 -10.53125 L 3.59375 -10.53125 L 3.59375 -2.0625 Z M 6.5625 -2.0625 "/></g></g></g><g fill="#289dd2" fill-opacity="1"><g transform="translate(172.459602, 258.820939)"><g><path d="M 9.8125 -5.046875 C 9.800781 -4.753906 9.6875 -4.515625 9.46875 -4.328125 C 9.25 -4.148438 9 -4.0625 8.71875 -4.0625 L 2.765625 -4.0625 C 2.910156 -3.351562 3.238281 -2.796875 3.75 -2.390625 C 4.269531 -1.992188 4.859375 -1.796875 5.515625 -1.796875 C 6.003906 -1.796875 6.382812 -1.835938 6.65625 -1.921875 C 6.9375 -2.015625 7.15625 -2.113281 7.3125 -2.21875 C 7.476562 -2.320312 7.59375 -2.394531 7.65625 -2.4375 C 7.863281 -2.539062 8.066406 -2.59375 8.265625 -2.59375 C 8.515625 -2.59375 8.726562 -2.5 8.90625 -2.3125 C 9.09375 -2.132812 9.1875 -1.925781 9.1875 -1.6875 C 9.1875 -1.363281 9.015625 -1.070312 8.671875 -0.8125 C 8.335938 -0.53125 7.890625 -0.289062 7.328125 -0.09375 C 6.765625 0.09375 6.191406 0.1875 5.609375 0.1875 C 4.609375 0.1875 3.734375 -0.0195312 2.984375 -0.4375 C 2.234375 -0.863281 1.648438 -1.445312 1.234375 -2.1875 C 0.828125 -2.925781 0.625 -3.757812 0.625 -4.6875 C 0.625 -5.71875 0.835938 -6.617188 1.265625 -7.390625 C 1.703125 -8.171875 2.273438 -8.769531 2.984375 -9.1875 C 3.691406 -9.601562 4.445312 -9.8125 5.25 -9.8125 C 6.039062 -9.8125 6.785156 -9.59375 7.484375 -9.15625 C 8.191406 -8.726562 8.753906 -8.144531 9.171875 -7.40625 C 9.597656 -6.675781 9.8125 -5.890625 9.8125 -5.046875 Z M 5.25 -7.828125 C 3.863281 -7.828125 3.046875 -7.175781 2.796875 -5.875 L 7.5 -5.875 L 7.5 -6 C 7.457031 -6.5 7.210938 -6.925781 6.765625 -7.28125 C 6.328125 -7.644531 5.820312 -7.828125 5.25 -7.828125 Z M 5.25 -7.828125 "/></g></g></g><g fill="#289dd2" fill-opacity="1"><g transform="translate(183.421565, 258.820939)"><g><path d="M 8.5625 -9.609375 C 8.851562 -9.609375 9.09375 -9.515625 9.28125 -9.328125 C 9.476562 -9.140625 9.578125 -8.910156 9.578125 -8.640625 C 9.578125 -8.492188 9.53125 -8.3125 9.4375 -8.09375 L 6.0625 -0.6875 C 5.976562 -0.476562 5.851562 -0.3125 5.6875 -0.1875 C 5.53125 -0.0703125 5.347656 -0.0078125 5.140625 0 L 4.984375 0.015625 C 4.785156 0.015625 4.597656 -0.046875 4.421875 -0.171875 C 4.242188 -0.296875 4.109375 -0.46875 4.015625 -0.6875 L 0.671875 -8.09375 C 0.585938 -8.289062 0.546875 -8.484375 0.546875 -8.671875 C 0.546875 -8.910156 0.644531 -9.128906 0.84375 -9.328125 C 1.050781 -9.523438 1.304688 -9.625 1.609375 -9.625 C 1.828125 -9.625 2.03125 -9.5625 2.21875 -9.4375 C 2.414062 -9.320312 2.5625 -9.160156 2.65625 -8.953125 L 5.140625 -3.265625 L 7.609375 -8.921875 C 7.710938 -9.148438 7.847656 -9.320312 8.015625 -9.4375 C 8.179688 -9.5625 8.363281 -9.617188 8.5625 -9.609375 Z M 8.5625 -9.609375 "/></g></g></g><g fill="#289dd2" fill-opacity="1"><g transform="translate(194.059535, 258.820939)"><g><path d="M 9.8125 -5.046875 C 9.800781 -4.753906 9.6875 -4.515625 9.46875 -4.328125 C 9.25 -4.148438 9 -4.0625 8.71875 -4.0625 L 2.765625 -4.0625 C 2.910156 -3.351562 3.238281 -2.796875 3.75 -2.390625 C 4.269531 -1.992188 4.859375 -1.796875 5.515625 -1.796875 C 6.003906 -1.796875 6.382812 -1.835938 6.65625 -1.921875 C 6.9375 -2.015625 7.15625 -2.113281 7.3125 -2.21875 C 7.476562 -2.320312 7.59375 -2.394531 7.65625 -2.4375 C 7.863281 -2.539062 8.066406 -2.59375 8.265625 -2.59375 C 8.515625 -2.59375 8.726562 -2.5 8.90625 -2.3125 C 9.09375 -2.132812 9.1875 -1.925781 9.1875 -1.6875 C 9.1875 -1.363281 9.015625 -1.070312 8.671875 -0.8125 C 8.335938 -0.53125 7.890625 -0.289062 7.328125 -0.09375 C 6.765625 0.09375 6.191406 0.1875 5.609375 0.1875 C 4.609375 0.1875 3.734375 -0.0195312 2.984375 -0.4375 C 2.234375 -0.863281 1.648438 -1.445312 1.234375 -2.1875 C 0.828125 -2.925781 0.625 -3.757812 0.625 -4.6875 C 0.625 -5.71875 0.835938 -6.617188 1.265625 -7.390625 C 1.703125 -8.171875 2.273438 -8.769531 2.984375 -9.1875 C 3.691406 -9.601562 4.445312 -9.8125 5.25 -9.8125 C 6.039062 -9.8125 6.785156 -9.59375 7.484375 -9.15625 C 8.191406 -8.726562 8.753906 -8.144531 9.171875 -7.40625 C 9.597656 -6.675781 9.8125 -5.890625 9.8125 -5.046875 Z M 5.25 -7.828125 C 3.863281 -7.828125 3.046875 -7.175781 2.796875 -5.875 L 7.5 -5.875 L 7.5 -6 C 7.457031 -6.5 7.210938 -6.925781 6.765625 -7.28125 C 6.328125 -7.644531 5.820312 -7.828125 5.25 -7.828125 Z M 5.25 -7.828125 "/></g></g></g><g fill="#289dd2" fill-opacity="1"><g transform="translate(205.021498, 258.820939)"><g><path d="M 3.515625 -1.09375 C 3.515625 -0.78125 3.40625 -0.519531 3.1875 -0.3125 C 2.976562 -0.101562 2.71875 0 2.40625 0 C 2.113281 0 1.863281 -0.101562 1.65625 -0.3125 C 1.445312 -0.519531 1.34375 -0.78125 1.34375 -1.09375 L 1.34375 -12.21875 C 1.34375 -12.53125 1.445312 -12.789062 1.65625 -13 C 1.875 -13.207031 2.140625 -13.3125 2.453125 -13.3125 C 2.742188 -13.3125 2.992188 -13.207031 3.203125 -13 C 3.410156 -12.789062 3.515625 -12.53125 3.515625 -12.21875 Z M 3.515625 -1.09375 "/></g></g></g><g fill="#289dd2" fill-opacity="1"><g transform="translate(210.403482, 258.820939)"><g><path d="M 10.421875 -4.8125 C 10.421875 -3.84375 10.203125 -2.976562 9.765625 -2.21875 C 9.335938 -1.457031 8.75 -0.863281 8 -0.4375 C 7.25 -0.0195312 6.425781 0.1875 5.53125 0.1875 C 4.613281 0.1875 3.78125 -0.0195312 3.03125 -0.4375 C 2.289062 -0.863281 1.703125 -1.457031 1.265625 -2.21875 C 0.835938 -2.976562 0.625 -3.84375 0.625 -4.8125 C 0.625 -5.769531 0.835938 -6.628906 1.265625 -7.390625 C 1.703125 -8.148438 2.289062 -8.742188 3.03125 -9.171875 C 3.78125 -9.597656 4.613281 -9.8125 5.53125 -9.8125 C 6.425781 -9.8125 7.25 -9.597656 8 -9.171875 C 8.75 -8.742188 9.335938 -8.148438 9.765625 -7.390625 C 10.203125 -6.628906 10.421875 -5.769531 10.421875 -4.8125 Z M 8.265625 -4.8125 C 8.265625 -5.394531 8.140625 -5.914062 7.890625 -6.375 C 7.648438 -6.84375 7.320312 -7.203125 6.90625 -7.453125 C 6.488281 -7.703125 6.03125 -7.828125 5.53125 -7.828125 C 5.019531 -7.828125 4.554688 -7.703125 4.140625 -7.453125 C 3.734375 -7.203125 3.40625 -6.84375 3.15625 -6.375 C 2.914062 -5.914062 2.796875 -5.394531 2.796875 -4.8125 C 2.796875 -4.21875 2.914062 -3.691406 3.15625 -3.234375 C 3.40625 -2.785156 3.734375 -2.429688 4.140625 -2.171875 C 4.554688 -1.921875 5.019531 -1.796875 5.53125 -1.796875 C 6.03125 -1.796875 6.488281 -1.921875 6.90625 -2.171875 C 7.320312 -2.429688 7.648438 -2.785156 7.890625 -3.234375 C 8.140625 -3.691406 8.265625 -4.21875 8.265625 -4.8125 Z M 8.265625 -4.8125 "/></g></g></g><g fill="#289dd2" fill-opacity="1"><g transform="translate(221.977452, 258.820939)"><g><path d="M 6.15625 -9.8125 C 6.976562 -9.8125 7.722656 -9.597656 8.390625 -9.171875 C 9.066406 -8.742188 9.597656 -8.148438 9.984375 -7.390625 C 10.378906 -6.640625 10.578125 -5.785156 10.578125 -4.828125 C 10.578125 -3.867188 10.382812 -3.003906 10 -2.234375 C 9.625 -1.472656 9.101562 -0.878906 8.4375 -0.453125 C 7.769531 -0.0234375 7.035156 0.1875 6.234375 0.1875 C 5.648438 0.1875 5.101562 0.0703125 4.59375 -0.15625 C 4.082031 -0.394531 3.660156 -0.6875 3.328125 -1.03125 L 3.328125 2.5 C 3.328125 2.8125 3.222656 3.070312 3.015625 3.28125 C 2.816406 3.488281 2.5625 3.59375 2.25 3.59375 C 1.9375 3.59375 1.675781 3.488281 1.46875 3.28125 C 1.269531 3.082031 1.171875 2.820312 1.171875 2.5 L 1.171875 -8.53125 C 1.171875 -8.84375 1.269531 -9.101562 1.46875 -9.3125 C 1.675781 -9.519531 1.9375 -9.625 2.25 -9.625 C 2.5625 -9.625 2.816406 -9.519531 3.015625 -9.3125 C 3.222656 -9.101562 3.328125 -8.84375 3.328125 -8.53125 L 3.328125 -8.453125 C 3.617188 -8.816406 4.019531 -9.132812 4.53125 -9.40625 C 5.050781 -9.675781 5.59375 -9.8125 6.15625 -9.8125 Z M 5.890625 -1.796875 C 6.648438 -1.796875 7.273438 -2.082031 7.765625 -2.65625 C 8.265625 -3.238281 8.515625 -3.960938 8.515625 -4.828125 C 8.515625 -5.691406 8.269531 -6.40625 7.78125 -6.96875 C 7.300781 -7.539062 6.671875 -7.828125 5.890625 -7.828125 C 5.109375 -7.828125 4.46875 -7.539062 3.96875 -6.96875 C 3.476562 -6.40625 3.234375 -5.691406 3.234375 -4.828125 C 3.234375 -3.960938 3.476562 -3.238281 3.96875 -2.65625 C 4.46875 -2.082031 5.109375 -1.796875 5.890625 -1.796875 Z M 5.890625 -1.796875 "/></g></g></g><g fill="#289dd2" fill-opacity="1"><g transform="translate(233.713413, 258.820939)"><g><path d="M 9.8125 -5.046875 C 9.800781 -4.753906 9.6875 -4.515625 9.46875 -4.328125 C 9.25 -4.148438 9 -4.0625 8.71875 -4.0625 L 2.765625 -4.0625 C 2.910156 -3.351562 3.238281 -2.796875 3.75 -2.390625 C 4.269531 -1.992188 4.859375 -1.796875 5.515625 -1.796875 C 6.003906 -1.796875 6.382812 -1.835938 6.65625 -1.921875 C 6.9375 -2.015625 7.15625 -2.113281 7.3125 -2.21875 C 7.476562 -2.320312 7.59375 -2.394531 7.65625 -2.4375 C 7.863281 -2.539062 8.066406 -2.59375 8.265625 -2.59375 C 8.515625 -2.59375 8.726562 -2.5 8.90625 -2.3125 C 9.09375 -2.132812 9.1875 -1.925781 9.1875 -1.6875 C 9.1875 -1.363281 9.015625 -1.070312 8.671875 -0.8125 C 8.335938 -0.53125 7.890625 -0.289062 7.328125 -0.09375 C 6.765625 0.09375 6.191406 0.1875 5.609375 0.1875 C 4.609375 0.1875 3.734375 -0.0195312 2.984375 -0.4375 C 2.234375 -0.863281 1.648438 -1.445312 1.234375 -2.1875 C 0.828125 -2.925781 0.625 -3.757812 0.625 -4.6875 C 0.625 -5.71875 0.835938 -6.617188 1.265625 -7.390625 C 1.703125 -8.171875 2.273438 -8.769531 2.984375 -9.1875 C 3.691406 -9.601562 4.445312 -9.8125 5.25 -9.8125 C 6.039062 -9.8125 6.785156 -9.59375 7.484375 -9.15625 C 8.191406 -8.726562 8.753906 -8.144531 9.171875 -7.40625 C 9.597656 -6.675781 9.8125 -5.890625 9.8125 -5.046875 Z M 5.25 -7.828125 C 3.863281 -7.828125 3.046875 -7.175781 2.796875 -5.875 L 7.5 -5.875 L 7.5 -6 C 7.457031 -6.5 7.210938 -6.925781 6.765625 -7.28125 C 6.328125 -7.644531 5.820312 -7.828125 5.25 -7.828125 Z M 5.25 -7.828125 "/></g></g></g><g fill="#289dd2" fill-opacity="1"><g transform="translate(244.675376, 258.820939)"><g><path d="M 6.171875 -9.8125 C 6.535156 -9.8125 6.835938 -9.707031 7.078125 -9.5 C 7.328125 -9.300781 7.453125 -9.0625 7.453125 -8.78125 C 7.453125 -8.40625 7.351562 -8.125 7.15625 -7.9375 C 6.96875 -7.757812 6.742188 -7.671875 6.484375 -7.671875 C 6.296875 -7.671875 6.09375 -7.710938 5.875 -7.796875 C 5.832031 -7.804688 5.75 -7.828125 5.625 -7.859375 C 5.5 -7.898438 5.363281 -7.921875 5.21875 -7.921875 C 4.90625 -7.921875 4.601562 -7.820312 4.3125 -7.625 C 4.03125 -7.4375 3.796875 -7.144531 3.609375 -6.75 C 3.421875 -6.363281 3.328125 -5.898438 3.328125 -5.359375 L 3.328125 -1.09375 C 3.328125 -0.78125 3.222656 -0.519531 3.015625 -0.3125 C 2.816406 -0.101562 2.5625 0 2.25 0 C 1.9375 0 1.675781 -0.101562 1.46875 -0.3125 C 1.269531 -0.519531 1.171875 -0.78125 1.171875 -1.09375 L 1.171875 -8.53125 C 1.171875 -8.84375 1.269531 -9.101562 1.46875 -9.3125 C 1.675781 -9.519531 1.9375 -9.625 2.25 -9.625 C 2.5625 -9.625 2.816406 -9.519531 3.015625 -9.3125 C 3.222656 -9.101562 3.328125 -8.84375 3.328125 -8.53125 L 3.328125 -8.296875 C 3.609375 -8.785156 4.003906 -9.160156 4.515625 -9.421875 C 5.035156 -9.679688 5.585938 -9.8125 6.171875 -9.8125 Z M 6.171875 -9.8125 "/></g></g></g><g fill="#289dd2" fill-opacity="1"><g transform="translate(253.009352, 258.820939)"><g><path d="M 0.609375 -1.5 C 0.503906 -1.632812 0.453125 -1.8125 0.453125 -2.03125 C 0.453125 -2.34375 0.609375 -2.609375 0.921875 -2.828125 C 1.085938 -2.929688 1.257812 -2.984375 1.4375 -2.984375 C 1.6875 -2.984375 1.925781 -2.867188 2.15625 -2.640625 C 2.519531 -2.273438 2.894531 -2 3.28125 -1.8125 C 3.675781 -1.632812 4.148438 -1.546875 4.703125 -1.546875 C 5.640625 -1.585938 6.109375 -1.941406 6.109375 -2.609375 C 6.109375 -2.953125 5.945312 -3.210938 5.625 -3.390625 C 5.300781 -3.578125 4.804688 -3.757812 4.140625 -3.9375 C 3.441406 -4.132812 2.875 -4.328125 2.4375 -4.515625 C 2 -4.710938 1.617188 -5.003906 1.296875 -5.390625 C 0.984375 -5.773438 0.828125 -6.300781 0.828125 -6.96875 C 0.828125 -7.539062 0.988281 -8.039062 1.3125 -8.46875 C 1.644531 -8.894531 2.078125 -9.222656 2.609375 -9.453125 C 3.148438 -9.691406 3.71875 -9.8125 4.3125 -9.8125 C 4.925781 -9.8125 5.539062 -9.695312 6.15625 -9.46875 C 6.769531 -9.238281 7.25 -8.898438 7.59375 -8.453125 C 7.75 -8.265625 7.828125 -8.050781 7.828125 -7.8125 C 7.828125 -7.53125 7.710938 -7.300781 7.484375 -7.125 C 7.316406 -7 7.125 -6.9375 6.90625 -6.9375 C 6.644531 -6.9375 6.429688 -7.019531 6.265625 -7.1875 C 6.046875 -7.445312 5.765625 -7.65625 5.421875 -7.8125 C 5.078125 -7.96875 4.691406 -8.046875 4.265625 -8.046875 C 3.347656 -8.046875 2.890625 -7.71875 2.890625 -7.0625 C 2.890625 -6.789062 2.972656 -6.570312 3.140625 -6.40625 C 3.316406 -6.25 3.53125 -6.125 3.78125 -6.03125 C 4.039062 -5.945312 4.40625 -5.835938 4.875 -5.703125 C 5.519531 -5.523438 6.054688 -5.335938 6.484375 -5.140625 C 6.921875 -4.953125 7.289062 -4.660156 7.59375 -4.265625 C 7.894531 -3.867188 8.046875 -3.347656 8.046875 -2.703125 C 8.046875 -2.109375 7.867188 -1.59375 7.515625 -1.15625 C 7.171875 -0.71875 6.722656 -0.382812 6.171875 -0.15625 C 5.628906 0.0703125 5.070312 0.1875 4.5 0.1875 C 3.707031 0.1875 2.96875 0.0546875 2.28125 -0.203125 C 1.601562 -0.472656 1.046875 -0.90625 0.609375 -1.5 Z M 0.609375 -1.5 "/></g></g></g></svg>