<svg xmlns="http://www.w3.org/2000/svg" xmlns:xlink="http://www.w3.org/1999/xlink" width="500" zoomAndPan="magnify" viewBox="0 0 375 374.999991" height="500" preserveAspectRatio="xMidYMid meet" version="1.0"><defs><clipPath id="29acdba370"><path d="M 3.671875 8.597656 L 171 8.597656 L 171 366.425781 L 3.671875 366.425781 Z M 3.671875 8.597656 " clip-rule="nonzero"/></clipPath><clipPath id="2ba78e32d2"><path d="M 197 8.597656 L 362.691406 8.597656 L 362.691406 366.425781 L 197 366.425781 Z M 197 8.597656 " clip-rule="nonzero"/></clipPath><clipPath id="8a0c870756"><path d="M 12.625 8.597656 L 180 8.597656 L 180 366.425781 L 12.625 366.425781 Z M 12.625 8.597656 " clip-rule="nonzero"/></clipPath><clipPath id="4f421a78f6"><path d="M 206 8.597656 L 371.648438 8.597656 L 371.648438 366.425781 L 206 366.425781 Z M 206 8.597656 " clip-rule="nonzero"/></clipPath></defs><g clip-path="url(#29acdba370)"><path fill="#7f7f7f" d="M 3.703125 187.496094 C 3.703125 267.324219 55.90625 334.972656 128.066406 358.214844 C 141.652344 362.59375 155.953125 365.394531 170.746094 366.402344 L 170.746094 8.585938 C 155.953125 9.601562 141.652344 12.402344 128.066406 16.78125 C 55.90625 40.019531 3.703125 107.664062 3.703125 187.496094 Z M 128.066406 310.347656 C 81.148438 289.296875 48.472656 242.210938 48.472656 187.496094 C 48.472656 132.78125 81.148438 85.691406 128.066406 64.644531 Z M 128.066406 310.347656 " fill-opacity="1" fill-rule="nonzero"/></g><g clip-path="url(#2ba78e32d2)"><path fill="#7f7f7f" d="M 334.570312 91.132812 L 297.875 116.867188 C 303.199219 125.476562 307.574219 134.726562 310.863281 144.476562 C 312.195312 148.414062 313.34375 152.433594 314.308594 156.527344 C 316.652344 166.46875 317.890625 176.835938 317.890625 187.496094 C 317.890625 199.21875 316.390625 210.589844 313.574219 221.433594 L 302.292969 192.851562 L 277.804688 130.808594 L 256.917969 194.128906 L 256.917969 194.132812 L 240.644531 243.320312 L 240.644531 17.554688 C 227.078125 12.972656 212.773438 9.972656 197.964844 8.765625 L 197.964844 366.230469 C 198.664062 366.175781 199.355469 366.113281 200.050781 366.050781 C 214.117188 364.738281 227.714844 361.804688 240.644531 357.441406 C 243.410156 356.507812 246.136719 355.511719 248.835938 354.449219 L 270.023438 290.394531 L 281.371094 256.09375 L 287.777344 272.320312 L 305.9375 318.324219 C 317.871094 307.144531 328.273438 294.347656 336.800781 280.289062 C 353.214844 253.214844 362.664062 221.457031 362.664062 187.496094 C 362.664062 152.027344 352.355469 118.964844 334.570312 91.132812 Z M 334.570312 91.132812 " fill-opacity="1" fill-rule="nonzero"/></g><g clip-path="url(#8a0c870756)"><path fill="#ff914d" d="M 12.65625 187.496094 C 12.65625 267.324219 64.859375 334.972656 137.019531 358.214844 C 150.605469 362.59375 164.90625 365.394531 179.699219 366.402344 L 179.699219 8.585938 C 164.90625 9.601562 150.605469 12.402344 137.019531 16.78125 C 64.859375 40.019531 12.65625 107.664062 12.65625 187.496094 Z M 137.019531 310.347656 C 90.101562 289.296875 57.425781 242.210938 57.425781 187.496094 C 57.425781 132.78125 90.101562 85.691406 137.019531 64.644531 Z M 137.019531 310.347656 " fill-opacity="1" fill-rule="nonzero"/></g><g clip-path="url(#4f421a78f6)"><path fill="#ff914d" d="M 343.523438 91.132812 L 306.832031 116.867188 C 312.152344 125.476562 316.53125 134.726562 319.820312 144.476562 C 321.148438 148.414062 322.296875 152.433594 323.261719 156.527344 C 325.605469 166.46875 326.84375 176.835938 326.84375 187.496094 C 326.84375 199.21875 325.34375 210.589844 322.527344 221.433594 L 311.246094 192.851562 L 286.761719 130.808594 L 265.871094 194.128906 L 265.871094 194.132812 L 249.601562 243.320312 L 249.601562 17.554688 C 236.03125 12.972656 221.730469 9.972656 206.917969 8.765625 L 206.917969 366.230469 C 207.617188 366.175781 208.3125 366.113281 209.003906 366.050781 C 223.070312 364.738281 236.667969 361.804688 249.601562 357.441406 C 252.363281 356.507812 255.09375 355.511719 257.789062 354.449219 L 278.976562 290.394531 L 290.324219 256.09375 L 296.730469 272.320312 L 314.890625 318.324219 C 326.828125 307.144531 337.230469 294.347656 345.753906 280.289062 C 362.167969 253.214844 371.617188 221.457031 371.617188 187.496094 C 371.617188 152.027344 361.308594 118.964844 343.523438 91.132812 Z M 343.523438 91.132812 " fill-opacity="1" fill-rule="nonzero"/></g></svg>