<svg xmlns="http://www.w3.org/2000/svg" xmlns:xlink="http://www.w3.org/1999/xlink" width="180" zoomAndPan="magnify" viewBox="0 0 135 135.000003" height="180" preserveAspectRatio="xMidYMid meet" version="1.0"><defs><clipPath id="339bd771ba"><path d="M 0.496094 0 L 134.503906 0 L 134.503906 134.007812 L 0.496094 134.007812 Z M 0.496094 0 " clip-rule="nonzero"/></clipPath><clipPath id="17ce159f9e"><path d="M 8.15625 7.808594 L 64 7.808594 L 64 126.183594 L 8.15625 126.183594 Z M 8.15625 7.808594 " clip-rule="nonzero"/></clipPath><clipPath id="039d3e7c31"><path d="M 72 7.808594 L 126.53125 7.808594 L 126.53125 126.183594 L 72 126.183594 Z M 72 7.808594 " clip-rule="nonzero"/></clipPath></defs><g clip-path="url(#339bd771ba)"><path fill="#dd8647" d="M 67.5 0 C 30.496094 0 0.496094 30 0.496094 67.003906 C 0.496094 104.007812 30.496094 134.007812 67.5 134.007812 C 104.503906 134.007812 134.503906 104.007812 134.503906 67.003906 C 134.503906 30 104.503906 0 67.5 0 " fill-opacity="1" fill-rule="nonzero"/></g><g clip-path="url(#17ce159f9e)"><path fill="#ffffff" d="M 8.164062 66.992188 C 8.164062 93.398438 25.378906 115.777344 49.171875 123.464844 C 53.652344 124.914062 58.367188 125.839844 63.242188 126.175781 L 63.242188 7.804688 C 58.367188 8.140625 53.652344 9.070312 49.171875 10.515625 C 25.378906 18.203125 8.164062 40.582031 8.164062 66.992188 Z M 49.171875 107.632812 C 33.703125 100.667969 22.925781 85.089844 22.925781 66.992188 C 22.925781 48.890625 33.703125 33.3125 49.171875 26.351562 Z M 49.171875 107.632812 " fill-opacity="1" fill-rule="nonzero"/></g><g clip-path="url(#039d3e7c31)"><path fill="#ffffff" d="M 117.261719 35.113281 L 105.160156 43.628906 C 106.917969 46.472656 108.359375 49.535156 109.445312 52.757812 C 109.882812 54.0625 110.261719 55.390625 110.578125 56.746094 C 111.351562 60.035156 111.761719 63.464844 111.761719 66.992188 C 111.761719 70.867188 111.265625 74.632812 110.335938 78.21875 L 106.617188 68.761719 L 98.542969 48.238281 L 91.65625 69.1875 L 86.292969 85.457031 L 86.292969 10.773438 C 81.816406 9.257812 77.101562 8.265625 72.21875 7.863281 L 72.21875 126.117188 C 72.449219 126.097656 72.675781 126.078125 72.90625 126.058594 C 77.542969 125.625 82.027344 124.65625 86.292969 123.210938 C 87.203125 122.902344 88.101562 122.574219 88.992188 122.222656 L 95.976562 101.03125 L 99.71875 89.683594 L 101.832031 95.050781 L 107.820312 110.269531 C 111.753906 106.570312 115.183594 102.339844 117.996094 97.6875 C 123.410156 88.730469 126.523438 78.226562 126.523438 66.992188 C 126.523438 55.257812 123.125 44.320312 117.261719 35.113281 Z M 117.261719 35.113281 " fill-opacity="1" fill-rule="nonzero"/></g></svg>