<svg width="750" height="500" viewBox="0 0 750 500" fill="none" xmlns="http://www.w3.org/2000/svg">
<path d="M371.144 85.0005C383.71 85.0005 393.896 74.6284 393.896 61.8337C393.896 49.0391 383.71 38.667 371.144 38.667C358.578 38.667 348.392 49.0391 348.392 61.8337C348.392 74.6284 358.578 85.0005 371.144 85.0005Z" fill="#46494C"/>
<path d="M422.065 50.8639C421.423 48.7216 420.18 46.8172 418.489 45.385C416.798 43.9528 414.733 43.0555 412.547 42.8035C412.496 42.7991 412.445 42.7991 412.393 42.8035C412.332 42.784 412.27 42.7695 412.206 42.7601C404.588 41.7536 396.118 44.2004 390.417 49.5277C388.301 51.4742 386.609 53.8505 385.45 56.5036C384.393 55.0338 383 53.8485 381.392 53.0503C379.784 52.252 378.009 51.8649 376.221 51.9224C373.915 52.0776 371.712 52.9533 369.913 54.4299C368.113 55.9065 366.805 57.9123 366.166 60.1737C366.096 60.45 366.115 60.742 366.221 61.0062C366.327 61.2704 366.514 61.4928 366.754 61.64C367.439 62.2369 368.254 62.6592 369.131 62.8721C371.015 63.2799 372.915 63.653 374.815 63.9914C378.53 64.6508 382.265 65.1858 386.02 65.5965C388.5 65.8655 390.985 66.0795 393.476 66.2386C398.623 66.5683 403.796 66.6464 408.951 66.4815C411.507 66.3947 413.961 66.308 416.296 65.1627C417.998 64.3107 419.451 63.0218 420.514 61.4231C421.515 59.8854 422.172 58.143 422.44 56.3187C422.708 54.4944 422.58 52.6324 422.065 50.8639Z" fill="#F4F4F4"/>
<path d="M375.258 84.6153C375.215 83.6446 375.055 82.683 374.781 81.7521C374.136 79.61 372.891 77.7061 371.199 76.2743C369.507 74.8424 367.441 73.9448 365.254 73.6917C365.206 73.6873 365.158 73.6873 365.11 73.6917C365.045 73.6731 364.98 73.6586 364.913 73.6483C360.697 73.1224 356.419 73.5702 352.396 74.9584C346.209 77.0668 340.782 81.3182 338.166 87.3918C337.108 85.9211 335.714 84.7353 334.104 83.937C332.494 83.1387 330.718 82.7521 328.929 82.8106C326.623 82.9658 324.42 83.8414 322.62 85.3181C320.821 86.7947 319.513 88.8005 318.874 91.0619C318.807 91.3382 318.828 91.6288 318.934 91.8922C319.04 92.1555 319.224 92.3781 319.462 92.5282C320.148 93.1234 320.962 93.5455 321.839 93.7603C323.731 94.1681 325.622 94.5412 327.531 94.8796C331.246 95.539 334.979 96.074 338.728 96.4847C346.345 97.3173 354.01 97.613 361.667 97.3697C364.215 97.2829 366.677 97.1961 369.012 96.0509C370.711 95.1986 372.162 93.9096 373.222 92.3113C374.715 90.0448 375.431 87.3391 375.258 84.6153V84.6153Z" fill="#F4F4F4"/>
<path d="M671.582 365.723C671.908 381.518 669.768 397.267 665.24 412.378C665.081 412.927 664.891 413.476 664.7 414.025H571.347C572.681 407.334 574.8 400.83 577.657 394.652C585.426 377.863 598.11 363.495 610.635 349.224C627.885 329.56 644.723 310.059 647.387 284.487C654.225 295.101 659.682 306.572 663.622 318.615C658.798 320.435 654.37 323.199 650.59 326.751C649.543 327.752 648.433 329.205 648.972 330.594C649.48 331.756 650.875 332.144 652.112 332.402C655.092 332.983 658.073 333.564 661.054 334.113C663.4 334.597 665.779 335.049 668.157 335.501C670.247 345.44 671.394 355.56 671.582 365.723V365.723Z" fill="#70915F"/>
<path d="M750 355.261C735.033 364.528 725.52 378.864 717.751 394.911C710.991 396.48 704.749 399.818 699.645 404.597C698.567 405.598 697.457 407.051 698.028 408.439C698.503 409.602 699.93 409.989 701.167 410.247C704.116 410.829 707.128 411.41 710.077 411.959C709.792 412.637 709.506 413.347 709.221 414.025H610.286C614.778 407.858 619.751 402.07 625.158 396.719C626.332 395.524 627.537 394.394 628.773 393.232C641.385 381.626 655.866 372.321 671.582 365.723C696.339 355.184 723.412 351.573 750 355.261Z" fill="#537243"/>
<path d="M626.776 414.025H538.686C538.205 406.842 538.247 399.633 538.813 392.457C542.332 348.126 566.019 305.894 601.757 280.322C597.19 296.885 599.537 313.352 604.293 329.883C603.627 330.109 602.961 330.303 602.359 330.561C597.535 332.381 593.107 335.145 589.326 338.698C588.28 339.699 587.17 341.152 587.709 342.54C588.185 343.702 589.612 344.09 590.848 344.348C593.829 344.929 596.81 345.51 599.759 346.059C602.137 346.544 604.515 346.996 606.893 347.48C608.003 347.674 609.113 347.9 610.223 348.126C610.381 348.513 610.477 348.869 610.635 349.224C616.216 364.883 622.304 380.672 625.158 396.719C625.865 400.746 626.352 404.809 626.617 408.891C626.712 410.603 626.776 412.314 626.776 414.025Z" fill="#F2F2F2"/>
<path d="M146.677 365.723C147.004 381.518 144.863 397.267 140.335 412.378C140.176 412.927 139.986 413.476 139.796 414.025H46.4422C47.7767 407.334 49.8953 400.83 52.7526 394.652C60.5213 377.863 73.2053 363.495 85.7307 349.224C102.981 329.56 119.819 310.059 122.483 284.487C129.32 295.101 134.777 306.572 138.718 318.615C133.894 320.435 129.466 323.199 125.685 326.751C124.639 327.752 123.529 329.205 124.068 330.594C124.575 331.756 125.971 332.144 127.207 332.402C130.188 332.983 133.169 333.564 136.149 334.113C138.496 334.597 140.874 335.049 143.252 335.501C145.343 345.44 146.49 355.56 146.677 365.723V365.723Z" fill="#70915F"/>
<path d="M225.096 355.261C210.128 364.528 200.615 378.864 192.847 394.911C186.086 396.48 179.845 399.818 174.74 404.597C173.662 405.598 172.552 407.051 173.123 408.439C173.599 409.602 175.026 409.989 176.262 410.247C179.211 410.829 182.224 411.41 185.173 411.959C184.887 412.637 184.602 413.347 184.317 414.025H85.382C89.8731 407.858 94.8466 402.07 100.254 396.719C101.427 395.524 102.632 394.394 103.869 393.232C116.481 381.626 130.962 372.321 146.677 365.723C171.434 355.184 198.508 351.573 225.096 355.261V355.261Z" fill="#F2F2F2"/>
<path d="M101.871 414.025H13.7811C13.3 406.842 13.3425 399.633 13.9081 392.457C17.4278 348.126 41.115 305.894 76.852 280.322C72.2858 296.885 74.6323 313.352 79.3888 329.883C78.723 330.109 78.057 330.303 77.4545 330.561C72.6302 332.381 68.2027 335.145 64.4218 338.698C63.3754 339.699 62.2656 341.152 62.8046 342.54C63.2801 343.702 64.7071 344.09 65.9438 344.348C68.9245 344.929 71.9053 345.51 74.8543 346.059C77.2325 346.544 79.6108 346.996 81.989 347.48C83.0987 347.674 84.2087 347.9 85.3185 348.126C85.477 348.513 85.5722 348.869 85.7307 349.224C91.3117 364.883 97.3999 380.672 100.254 396.719C100.96 400.746 101.447 404.809 101.713 408.891C101.808 410.603 101.871 412.314 101.871 414.025Z" fill="#537243"/>
<path d="M429.817 376.367L508.527 383.482L509.37 383.56V41.5863C509.089 41.3867 508.808 41.1872 508.527 40.9876C492.123 29.3045 474.378 19.7066 455.687 12.4073L451.665 68.8911L451.299 74.0622L447.319 130.077L446.092 147.309L429.961 374.372L429.817 376.367Z" fill="#CDCDCD"/>
<path d="M235.167 35.2178C234.605 35.5822 234.043 35.9466 233.48 36.3283V383.56L235.167 383.404L313.025 376.367L312.881 374.372L296.75 147.309L295.523 130.077L291.543 74.0622L291.177 68.8911L286.959 9.65692C268.769 16.0769 251.386 24.6563 235.167 35.2178V35.2178Z" fill="#CDCDCD"/>
<path d="M233.48 36.3283C232.347 37.0745 231.214 37.838 230.097 38.6102V388.297C230.097 397.035 235.184 404.358 241.984 406.223C243.095 406.529 244.242 406.684 245.393 406.683H498.301C499.45 406.684 500.593 406.53 501.701 406.223C504.229 405.509 506.52 404.112 508.331 402.18C511.785 398.421 513.672 393.444 513.597 388.297V44.6924C512.199 43.6425 510.793 42.6014 509.37 41.5862C509.089 41.3867 508.808 41.1871 508.527 40.9876V388.297C508.529 389.423 508.397 390.544 508.135 391.638C506.933 396.8 502.971 400.583 498.301 400.583H245.393C239.752 400.583 235.167 395.074 235.167 388.297V35.2177C234.605 35.5821 234.043 35.9465 233.48 36.3283Z" fill="#E6E6E6"/>
<path d="M511.062 68.8945H232.63V74.0648H511.062V68.8945Z" fill="#F4F4F4"/>
<path d="M425.786 2.94134C424.099 2.5162 422.412 2.11708 420.708 1.74399V142.138H425.786V2.94134Z" fill="#F4F4F4"/>
<path d="M322.987 0C321.291 0.321029 319.595 0.650737 317.908 1.00647V142.138H322.987V0Z" fill="#F4F4F4"/>
<path d="M178.041 397.633C178.04 400.6 178.599 403.54 179.686 406.292C180.104 407.36 180.602 408.392 181.177 409.381C181.92 410.671 182.782 411.885 183.751 413.008C185.891 415.492 188.528 417.482 191.485 418.845C194.441 420.208 197.65 420.913 200.895 420.912H534.337C540.399 420.912 546.212 418.46 550.497 414.096C554.783 409.732 557.191 403.814 557.191 397.642C557.191 391.47 554.783 385.551 550.497 381.187C546.212 376.823 540.399 374.372 534.337 374.372H200.895C194.837 374.378 189.029 376.83 184.745 381.191C180.46 385.552 178.05 391.465 178.041 397.633V397.633Z" fill="#F4F4F4"/>
<path d="M232.63 147.311L509.369 147.311V130.076L232.63 130.076V147.311Z" fill="#F4F4F4"/>
<path d="M382.848 134.385H359.152C359.152 131.871 360.132 129.46 361.878 127.682C363.624 125.905 365.992 124.906 368.461 124.906H373.539C374.761 124.906 375.972 125.151 377.101 125.628C378.23 126.104 379.257 126.802 380.121 127.682C380.986 128.563 381.671 129.608 382.139 130.758C382.607 131.908 382.848 133.14 382.848 134.385V134.385H382.848Z" fill="#F4F4F4"/>
<path d="M0 410.926C7.40256 419.857 15.4093 428.25 23.9615 436.044H711.263C719.815 428.25 727.822 419.857 735.224 410.926H0Z" fill="#434242"/>
<path d="M338.027 326.929V415.915H399.251V326.929C399.252 326.289 399.052 325.665 398.679 325.15C398.306 324.635 397.781 324.255 397.181 324.066C396.898 323.97 396.601 323.923 396.303 323.927H340.983C340.596 323.926 340.211 324.003 339.853 324.154C339.494 324.304 339.169 324.525 338.894 324.804C338.619 325.083 338.401 325.414 338.253 325.778C338.104 326.143 338.027 326.534 338.027 326.929V326.929ZM361.92 357.505C361.936 355.751 362.632 354.074 363.856 352.839C365.08 351.605 366.733 350.912 368.456 350.912C370.179 350.912 371.832 351.605 373.056 352.839C374.279 354.074 374.975 355.751 374.991 357.505V367.83C374.983 369.589 374.29 371.273 373.065 372.513C371.841 373.754 370.183 374.451 368.456 374.451C366.728 374.451 365.071 373.754 363.846 372.513C362.621 371.273 361.929 369.589 361.92 367.83V357.505Z" fill="#332F3E"/>
<path d="M337.839 413.069V421.65C337.841 422.094 338.014 422.52 338.322 422.835C338.63 423.15 339.047 423.329 339.484 423.333H397.794C398.231 423.331 398.649 423.152 398.958 422.837C399.266 422.521 399.439 422.095 399.439 421.65V413.069H337.839Z" fill="#3F3D56"/>
<path d="M241.712 192.86V355.336C241.713 357.406 242.522 359.391 243.96 360.855C245.398 362.32 247.347 363.143 249.381 363.144H485.843C487.877 363.143 489.827 362.32 491.264 360.855C492.702 359.391 493.511 357.406 493.512 355.336V192.86C493.508 190.792 492.698 188.809 491.26 187.347C489.823 185.885 487.875 185.063 485.843 185.06H249.381C247.349 185.063 245.401 185.885 243.964 187.347C242.526 188.809 241.717 190.792 241.712 192.86V192.86Z" fill="#312D3C"/>
<path d="M247.259 194.882V353.331C247.261 354.438 247.693 355.498 248.462 356.28C249.23 357.062 250.271 357.503 251.358 357.505H483.875C484.961 357.503 486.003 357.062 486.771 356.28C487.539 355.498 487.972 354.438 487.974 353.331V194.882C487.974 193.774 487.542 192.712 486.774 191.928C486.005 191.144 484.963 190.702 483.875 190.7H251.358C250.27 190.702 249.227 191.144 248.459 191.928C247.691 192.712 247.259 193.774 247.259 194.882V194.882Z" fill="#F4F4F4"/>
<path d="M294.671 425.355C294.907 425.657 295.208 425.9 295.551 426.067C295.893 426.234 296.268 426.32 296.648 426.318H434.981C435.359 426.317 435.732 426.231 436.074 426.065C436.415 425.899 436.716 425.658 436.954 425.359C437.193 425.059 437.362 424.71 437.451 424.335C437.54 423.961 437.546 423.571 437.469 423.194L435.321 412.808C435.232 412.385 435.041 411.991 434.764 411.662C434.487 411.333 434.134 411.08 433.736 410.926C433.449 410.811 433.142 410.752 432.833 410.752H298.787C298.477 410.752 298.171 410.811 297.883 410.926C297.486 411.08 297.133 411.333 296.856 411.662C296.579 411.991 296.387 412.385 296.298 412.808L294.151 423.194C294.075 423.571 294.082 423.96 294.172 424.334C294.261 424.708 294.432 425.056 294.671 425.355Z" fill="#312D3C"/>
<path d="M428.006 415.225H431.435C431.664 415.225 431.851 415.036 431.851 414.802V413.046C431.851 412.812 431.664 412.623 431.435 412.623H428.006C427.776 412.623 427.59 412.812 427.59 413.046V414.802C427.59 415.036 427.776 415.225 428.006 415.225Z" fill="#F4F4F4"/>
<path d="M419.485 415.225H422.913C423.143 415.225 423.329 415.036 423.329 414.802V413.046C423.329 412.812 423.143 412.623 422.913 412.623H419.485C419.255 412.623 419.069 412.812 419.069 413.046V414.802C419.069 415.036 419.255 415.225 419.485 415.225Z" fill="#F4F4F4"/>
<path d="M410.964 415.225H414.392C414.622 415.225 414.808 415.036 414.808 414.802V413.046C414.808 412.812 414.622 412.623 414.392 412.623H410.964C410.734 412.623 410.548 412.812 410.548 413.046V414.802C410.548 415.036 410.734 415.225 410.964 415.225Z" fill="#F4F4F4"/>
<path d="M402.442 415.225H405.871C406.101 415.225 406.287 415.036 406.287 414.802V413.046C406.287 412.812 406.101 412.623 405.871 412.623H402.442C402.213 412.623 402.027 412.812 402.027 413.046V414.802C402.027 415.036 402.213 415.225 402.442 415.225Z" fill="#F4F4F4"/>
<path d="M393.921 415.225H397.35C397.58 415.225 397.766 415.036 397.766 414.802V413.046C397.766 412.812 397.58 412.623 397.35 412.623H393.921C393.692 412.623 393.505 412.812 393.505 413.046V414.802C393.505 415.036 393.692 415.225 393.921 415.225Z" fill="#F4F4F4"/>
<path d="M385.4 415.225H388.829C389.058 415.225 389.245 415.036 389.245 414.802V413.046C389.245 412.812 389.058 412.623 388.829 412.623H385.4C385.17 412.623 384.984 412.812 384.984 413.046V414.802C384.984 415.036 385.17 415.225 385.4 415.225Z" fill="#F4F4F4"/>
<path d="M376.879 415.225H380.308C380.537 415.225 380.724 415.036 380.724 414.802V413.046C380.724 412.812 380.537 412.623 380.308 412.623H376.879C376.649 412.623 376.463 412.812 376.463 413.046V414.802C376.463 415.036 376.649 415.225 376.879 415.225Z" fill="#F4F4F4"/>
<path d="M368.358 415.225H371.786C372.016 415.225 372.202 415.036 372.202 414.802V413.046C372.202 412.812 372.016 412.623 371.786 412.623H368.358C368.128 412.623 367.942 412.812 367.942 413.046V414.802C367.942 415.036 368.128 415.225 368.358 415.225Z" fill="#F4F4F4"/>
<path d="M359.837 415.225H363.265C363.495 415.225 363.681 415.036 363.681 414.802V413.046C363.681 412.812 363.495 412.623 363.265 412.623H359.837C359.607 412.623 359.421 412.812 359.421 413.046V414.802C359.421 415.036 359.607 415.225 359.837 415.225Z" fill="#F4F4F4"/>
<path d="M351.315 415.225H354.744C354.974 415.225 355.16 415.036 355.16 414.802V413.046C355.16 412.812 354.974 412.623 354.744 412.623H351.315C351.086 412.623 350.899 412.812 350.899 413.046V414.802C350.899 415.036 351.086 415.225 351.315 415.225Z" fill="#F4F4F4"/>
<path d="M342.794 415.225H346.223C346.453 415.225 346.639 415.036 346.639 414.802V413.046C346.639 412.812 346.453 412.623 346.223 412.623H342.794C342.565 412.623 342.378 412.812 342.378 413.046V414.802C342.378 415.036 342.565 415.225 342.794 415.225Z" fill="#F4F4F4"/>
<path d="M334.273 415.225H337.702C337.931 415.225 338.118 415.036 338.118 414.802V413.046C338.118 412.812 337.931 412.623 337.702 412.623H334.273C334.043 412.623 333.857 412.812 333.857 413.046V414.802C333.857 415.036 334.043 415.225 334.273 415.225Z" fill="#F4F4F4"/>
<path d="M325.752 415.225H329.181C329.41 415.225 329.597 415.036 329.597 414.802V413.046C329.597 412.812 329.41 412.623 329.181 412.623H325.752C325.522 412.623 325.336 412.812 325.336 413.046V414.802C325.336 415.036 325.522 415.225 325.752 415.225Z" fill="#F4F4F4"/>
<path d="M317.231 415.225H320.659C320.889 415.225 321.075 415.036 321.075 414.802V413.046C321.075 412.812 320.889 412.623 320.659 412.623H317.231C317.001 412.623 316.815 412.812 316.815 413.046V414.802C316.815 415.036 317.001 415.225 317.231 415.225Z" fill="#F4F4F4"/>
<path d="M308.71 415.225H312.138C312.368 415.225 312.554 415.036 312.554 414.802V413.046C312.554 412.812 312.368 412.623 312.138 412.623H308.71C308.48 412.623 308.294 412.812 308.294 413.046V414.802C308.294 415.036 308.48 415.225 308.71 415.225Z" fill="#F4F4F4"/>
<path d="M300.188 415.225H303.617C303.847 415.225 304.033 415.036 304.033 414.802V413.046C304.033 412.812 303.847 412.623 303.617 412.623H300.188C299.959 412.623 299.772 412.812 299.772 413.046V414.802C299.772 415.036 299.959 415.225 300.188 415.225Z" fill="#F4F4F4"/>
<path d="M428.107 419.564H431.535C431.765 419.564 431.951 419.374 431.951 419.14V417.384C431.951 417.15 431.765 416.961 431.535 416.961H428.107C427.877 416.961 427.691 417.15 427.691 417.384V419.14C427.691 419.374 427.877 419.564 428.107 419.564Z" fill="#F4F4F4"/>
<path d="M419.586 419.564H423.014C423.244 419.564 423.43 419.374 423.43 419.14V417.384C423.43 417.15 423.244 416.961 423.014 416.961H419.586C419.356 416.961 419.17 417.15 419.17 417.384V419.14C419.17 419.374 419.356 419.564 419.586 419.564Z" fill="#F4F4F4"/>
<path d="M411.064 419.564H414.493C414.723 419.564 414.909 419.374 414.909 419.14V417.384C414.909 417.15 414.723 416.961 414.493 416.961H411.064C410.835 416.961 410.648 417.15 410.648 417.384V419.14C410.648 419.374 410.835 419.564 411.064 419.564Z" fill="#F4F4F4"/>
<path d="M402.543 419.564H405.972C406.202 419.564 406.388 419.374 406.388 419.14V417.384C406.388 417.15 406.202 416.961 405.972 416.961H402.543C402.314 416.961 402.127 417.15 402.127 417.384V419.14C402.127 419.374 402.314 419.564 402.543 419.564Z" fill="#F4F4F4"/>
<path d="M394.022 419.564H397.451C397.68 419.564 397.867 419.374 397.867 419.14V417.384C397.867 417.15 397.68 416.961 397.451 416.961H394.022C393.792 416.961 393.606 417.15 393.606 417.384V419.14C393.606 419.374 393.792 419.564 394.022 419.564Z" fill="#F4F4F4"/>
<path d="M385.501 419.564H388.93C389.159 419.564 389.346 419.374 389.346 419.14V417.384C389.346 417.15 389.159 416.961 388.93 416.961H385.501C385.271 416.961 385.085 417.15 385.085 417.384V419.14C385.085 419.374 385.271 419.564 385.501 419.564Z" fill="#F4F4F4"/>
<path d="M376.98 419.564H380.408C380.638 419.564 380.824 419.374 380.824 419.14V417.384C380.824 417.15 380.638 416.961 380.408 416.961H376.98C376.75 416.961 376.564 417.15 376.564 417.384V419.14C376.564 419.374 376.75 419.564 376.98 419.564Z" fill="#F4F4F4"/>
<path d="M368.459 419.564H371.887C372.117 419.564 372.303 419.374 372.303 419.14V417.384C372.303 417.15 372.117 416.961 371.887 416.961H368.459C368.229 416.961 368.043 417.15 368.043 417.384V419.14C368.043 419.374 368.229 419.564 368.459 419.564Z" fill="#F4F4F4"/>
<path d="M359.937 419.564H363.366C363.596 419.564 363.782 419.374 363.782 419.14V417.384C363.782 417.15 363.596 416.961 363.366 416.961H359.937C359.708 416.961 359.521 417.15 359.521 417.384V419.14C359.521 419.374 359.708 419.564 359.937 419.564Z" fill="#F4F4F4"/>
<path d="M351.416 419.564H354.845C355.075 419.564 355.261 419.374 355.261 419.14V417.384C355.261 417.15 355.075 416.961 354.845 416.961H351.416C351.186 416.961 351 417.15 351 417.384V419.14C351 419.374 351.186 419.564 351.416 419.564Z" fill="#F4F4F4"/>
<path d="M342.895 419.564H346.324C346.553 419.564 346.74 419.374 346.74 419.14V417.384C346.74 417.15 346.553 416.961 346.324 416.961H342.895C342.665 416.961 342.479 417.15 342.479 417.384V419.14C342.479 419.374 342.665 419.564 342.895 419.564Z" fill="#F4F4F4"/>
<path d="M334.374 419.564H337.802C338.032 419.564 338.218 419.374 338.218 419.14V417.384C338.218 417.15 338.032 416.961 337.802 416.961H334.374C334.144 416.961 333.958 417.15 333.958 417.384V419.14C333.958 419.374 334.144 419.564 334.374 419.564Z" fill="#F4F4F4"/>
<path d="M325.853 419.564H329.281C329.511 419.564 329.697 419.374 329.697 419.14V417.384C329.697 417.15 329.511 416.961 329.281 416.961H325.853C325.623 416.961 325.437 417.15 325.437 417.384V419.14C325.437 419.374 325.623 419.564 325.853 419.564Z" fill="#F4F4F4"/>
<path d="M317.331 419.564H320.76C320.99 419.564 321.176 419.374 321.176 419.14V417.384C321.176 417.15 320.99 416.961 320.76 416.961H317.331C317.102 416.961 316.916 417.15 316.916 417.384V419.14C316.916 419.374 317.102 419.564 317.331 419.564Z" fill="#F4F4F4"/>
<path d="M308.81 419.564H312.239C312.469 419.564 312.655 419.374 312.655 419.14V417.384C312.655 417.15 312.469 416.961 312.239 416.961H308.81C308.581 416.961 308.394 417.15 308.394 417.384V419.14C308.394 419.374 308.581 419.564 308.81 419.564Z" fill="#F4F4F4"/>
<path d="M300.289 419.564H303.718C303.947 419.564 304.134 419.374 304.134 419.14V417.384C304.134 417.15 303.947 416.961 303.718 416.961H300.289C300.059 416.961 299.873 417.15 299.873 417.384V419.14C299.873 419.374 300.059 419.564 300.289 419.564Z" fill="#F4F4F4"/>
<path d="M357.381 424.77H390.634C390.863 424.77 391.05 424.58 391.05 424.346V422.59C391.05 422.356 390.863 422.167 390.634 422.167H357.381C357.151 422.167 356.965 422.356 356.965 422.59V424.346C356.965 424.58 357.151 424.77 357.381 424.77Z" fill="#F4F4F4"/>
<path d="M263.042 212.527H480.607C480.834 212.522 481.049 212.427 481.207 212.262C481.365 212.098 481.454 211.876 481.454 211.646C481.454 211.416 481.365 211.194 481.207 211.03C481.049 210.865 480.834 210.77 480.607 210.765H263.042C262.816 210.77 262.6 210.865 262.442 211.03C262.284 211.194 262.195 211.416 262.195 211.646C262.195 211.876 262.284 212.098 262.442 212.262C262.6 212.427 262.816 212.522 263.042 212.527V212.527Z" fill="#C5C3C6"/>
<path d="M465.797 206.267C468.598 206.267 470.868 203.904 470.868 200.989C470.868 198.074 468.598 195.711 465.797 195.711C462.997 195.711 460.727 198.074 460.727 200.989C460.727 203.904 462.997 206.267 465.797 206.267Z" fill="#C5C3C6"/>
<path d="M448.281 206.267C451.082 206.267 453.352 203.904 453.352 200.989C453.352 198.074 451.082 195.711 448.281 195.711C445.481 195.711 443.211 198.074 443.211 200.989C443.211 203.904 445.481 206.267 448.281 206.267Z" fill="#C5C3C6"/>
<path d="M430.765 206.267C433.565 206.267 435.836 203.904 435.836 200.989C435.836 198.074 433.565 195.711 430.765 195.711C427.965 195.711 425.695 198.074 425.695 200.989C425.695 203.904 427.965 206.267 430.765 206.267Z" fill="#C5C3C6"/>
<path d="M272.661 197.979C272.66 198.104 272.684 198.228 272.73 198.343C272.776 198.459 272.845 198.564 272.931 198.652C273.017 198.741 273.12 198.812 273.233 198.86C273.346 198.908 273.467 198.933 273.589 198.934H286.03C286.276 198.928 286.51 198.824 286.682 198.645C286.854 198.466 286.95 198.225 286.95 197.975C286.95 197.725 286.854 197.484 286.682 197.305C286.51 197.126 286.276 197.022 286.03 197.016H273.589C273.341 197.019 273.104 197.122 272.93 197.303C272.756 197.483 272.659 197.726 272.661 197.979V197.979Z" fill="#C5C3C6"/>
<path d="M272.661 201.58C272.66 201.705 272.684 201.829 272.73 201.944C272.776 202.06 272.845 202.165 272.931 202.253C273.017 202.342 273.12 202.412 273.233 202.461C273.346 202.509 273.467 202.534 273.589 202.535H286.03C286.276 202.529 286.511 202.426 286.683 202.246C286.855 202.067 286.951 201.826 286.951 201.576C286.951 201.325 286.855 201.084 286.683 200.905C286.511 200.726 286.276 200.623 286.03 200.617H273.589C273.341 200.62 273.104 200.723 272.93 200.904C272.756 201.084 272.659 201.327 272.661 201.58V201.58Z" fill="#C5C3C6"/>
<path d="M272.661 205.172C272.659 205.425 272.756 205.668 272.93 205.849C273.104 206.029 273.341 206.132 273.589 206.135H286.03C286.276 206.129 286.51 206.026 286.682 205.847C286.854 205.668 286.95 205.427 286.95 205.177C286.95 204.926 286.854 204.685 286.682 204.506C286.51 204.327 286.276 204.224 286.03 204.218H273.589C273.467 204.218 273.346 204.243 273.233 204.292C273.12 204.34 273.017 204.41 272.931 204.499C272.845 204.588 272.776 204.693 272.73 204.808C272.684 204.924 272.66 205.047 272.661 205.172V205.172Z" fill="#C5C3C6"/>
<path d="M276.505 233H272.035C270.68 233 269.581 234.119 269.581 235.499C269.581 236.879 270.68 237.998 272.035 237.998H276.505C277.861 237.998 278.96 236.879 278.96 235.499C278.96 234.119 277.861 233 276.505 233Z" fill="#C5C3C6"/>
<path d="M327.632 233H323.162C321.807 233 320.708 234.119 320.708 235.499C320.708 236.879 321.807 237.998 323.162 237.998H327.632C328.988 237.998 330.087 236.879 330.087 235.499C330.087 234.119 328.988 233 327.632 233Z" fill="#C5C3C6"/>
<path d="M342.119 233H337.648C336.293 233 335.194 234.119 335.194 235.499C335.194 236.879 336.293 237.998 337.648 237.998H342.119C343.474 237.998 344.573 236.879 344.573 235.499C344.573 234.119 343.474 233 342.119 233Z" fill="#C5C3C6"/>
<path d="M313.726 232.584H285.942C284.586 232.584 283.488 233.703 283.488 235.083C283.488 236.463 284.586 237.581 285.942 237.581H313.726C315.081 237.581 316.18 236.463 316.18 235.083C316.18 233.703 315.081 232.584 313.726 232.584Z" fill="#C5C3C6"/>
<path d="M381.895 232.584H354.111C352.756 232.584 351.657 233.703 351.657 235.083C351.657 236.463 352.756 237.581 354.111 237.581H381.895C383.251 237.581 384.349 236.463 384.349 235.083C384.349 233.703 383.251 232.584 381.895 232.584Z" fill="#C5C3C6"/>
<path d="M290.139 244.28H285.669C284.314 244.28 283.215 245.399 283.215 246.779C283.215 248.159 284.314 249.277 285.669 249.277H290.139C291.495 249.277 292.593 248.159 292.593 246.779C292.593 245.399 291.495 244.28 290.139 244.28Z" fill="#C5C3C6"/>
<path d="M341.266 244.28H336.796C335.441 244.28 334.342 245.399 334.342 246.779C334.342 248.159 335.441 249.277 336.796 249.277H341.266C342.622 249.277 343.72 248.159 343.72 246.779C343.72 245.399 342.622 244.28 341.266 244.28Z" fill="#C5C3C6"/>
<path d="M355.752 244.28H351.282C349.927 244.28 348.828 245.399 348.828 246.779C348.828 248.159 349.927 249.277 351.282 249.277H355.752C357.108 249.277 358.206 248.159 358.206 246.779C358.206 245.399 357.108 244.28 355.752 244.28Z" fill="#C5C3C6"/>
<path d="M327.36 243.863H299.576C298.22 243.863 297.122 244.982 297.122 246.362C297.122 247.742 298.22 248.861 299.576 248.861H327.36C328.715 248.861 329.814 247.742 329.814 246.362C329.814 244.982 328.715 243.863 327.36 243.863Z" fill="#C5C3C6"/>
<path d="M395.529 243.863H367.745C366.39 243.863 365.291 244.982 365.291 246.362C365.291 247.742 366.39 248.861 367.745 248.861H395.529C396.884 248.861 397.983 247.742 397.983 246.362C397.983 244.982 396.884 243.863 395.529 243.863Z" fill="#C5C3C6"/>
<path d="M303.773 255.559H299.303C297.948 255.559 296.849 256.678 296.849 258.058C296.849 259.438 297.948 260.557 299.303 260.557H303.773C305.129 260.557 306.227 259.438 306.227 258.058C306.227 256.678 305.129 255.559 303.773 255.559Z" fill="#C5C3C6"/>
<path d="M354.9 255.559H350.43C349.075 255.559 347.976 256.678 347.976 258.058C347.976 259.438 349.075 260.557 350.43 260.557H354.9C356.256 260.557 357.354 259.438 357.354 258.058C357.354 256.678 356.256 255.559 354.9 255.559Z" fill="#C5C3C6"/>
<path d="M369.386 255.559H364.916C363.561 255.559 362.462 256.678 362.462 258.058C362.462 259.438 363.561 260.557 364.916 260.557H369.386C370.742 260.557 371.84 259.438 371.84 258.058C371.84 256.678 370.742 255.559 369.386 255.559Z" fill="#C5C3C6"/>
<path d="M340.994 255.143H313.21C311.854 255.143 310.756 256.261 310.756 257.641C310.756 259.021 311.854 260.14 313.21 260.14H340.994C342.349 260.14 343.448 259.021 343.448 257.641C343.448 256.261 342.349 255.143 340.994 255.143Z" fill="#C5C3C6"/>
<path d="M409.163 255.143H381.379C380.024 255.143 378.925 256.261 378.925 257.641C378.925 259.021 380.024 260.14 381.379 260.14H409.163C410.518 260.14 411.617 259.021 411.617 257.641C411.617 256.261 410.518 255.143 409.163 255.143Z" fill="#C5C3C6"/>
<path d="M317.407 266.839H312.937C311.581 266.839 310.483 267.957 310.483 269.337C310.483 270.717 311.581 271.836 312.937 271.836H317.407C318.762 271.836 319.861 270.717 319.861 269.337C319.861 267.957 318.762 266.839 317.407 266.839Z" fill="#C5C3C6"/>
<path d="M368.534 266.839H364.064C362.708 266.839 361.61 267.957 361.61 269.337C361.61 270.717 362.708 271.836 364.064 271.836H368.534C369.89 271.836 370.988 270.717 370.988 269.337C370.988 267.957 369.89 266.839 368.534 266.839Z" fill="#C5C3C6"/>
<path d="M383.02 266.839H378.55C377.194 266.839 376.096 267.957 376.096 269.337C376.096 270.717 377.194 271.836 378.55 271.836H383.02C384.375 271.836 385.474 270.717 385.474 269.337C385.474 267.957 384.375 266.839 383.02 266.839Z" fill="#C5C3C6"/>
<path d="M354.627 266.422H326.843C325.488 266.422 324.389 267.541 324.389 268.921C324.389 270.301 325.488 271.42 326.843 271.42H354.627C355.983 271.42 357.082 270.301 357.082 268.921C357.082 267.541 355.983 266.422 354.627 266.422Z" fill="#C5C3C6"/>
<path d="M327.632 311.69H323.162C321.807 311.69 320.708 312.809 320.708 314.189C320.708 315.569 321.807 316.688 323.162 316.688H327.632C328.988 316.688 330.087 315.569 330.087 314.189C330.087 312.809 328.988 311.69 327.632 311.69Z" fill="#C5C3C6"/>
<path d="M342.119 311.69H337.648C336.293 311.69 335.194 312.809 335.194 314.189C335.194 315.569 336.293 316.688 337.648 316.688H342.119C343.474 316.688 344.573 315.569 344.573 314.189C344.573 312.809 343.474 311.69 342.119 311.69Z" fill="#C5C3C6"/>
<path d="M381.895 312.107H354.111C352.756 312.107 351.657 313.226 351.657 314.606C351.657 315.986 352.756 317.104 354.111 317.104H381.895C383.251 317.104 384.349 315.986 384.349 314.606C384.349 313.226 383.251 312.107 381.895 312.107Z" fill="#C5C3C6"/>
<path d="M276.505 311.69H272.035C270.68 311.69 269.581 312.809 269.581 314.189C269.581 315.569 270.68 316.688 272.035 316.688H276.505C277.861 316.688 278.96 315.569 278.96 314.189C278.96 312.809 277.861 311.69 276.505 311.69Z" fill="#C5C3C6"/>
<path d="M313.726 312.107H285.942C284.586 312.107 283.488 313.226 283.488 314.606C283.488 315.986 284.586 317.104 285.942 317.104H313.726C315.081 317.104 316.18 315.986 316.18 314.606C316.18 313.226 315.081 312.107 313.726 312.107Z" fill="#C5C3C6"/>
<path d="M290.139 300.411H285.669C284.314 300.411 283.215 301.53 283.215 302.91C283.215 304.29 284.314 305.408 285.669 305.408H290.139C291.495 305.408 292.593 304.29 292.593 302.91C292.593 301.53 291.495 300.411 290.139 300.411Z" fill="#C5C3C6"/>
<path d="M341.266 300.411H336.796C335.441 300.411 334.342 301.53 334.342 302.91C334.342 304.29 335.441 305.408 336.796 305.408H341.266C342.622 305.408 343.72 304.29 343.72 302.91C343.72 301.53 342.622 300.411 341.266 300.411Z" fill="#C5C3C6"/>
<path d="M355.752 300.411H351.282C349.927 300.411 348.828 301.53 348.828 302.91C348.828 304.29 349.927 305.408 351.282 305.408H355.752C357.108 305.408 358.206 304.29 358.206 302.91C358.206 301.53 357.108 300.411 355.752 300.411Z" fill="#C5C3C6"/>
<path d="M327.36 300.827H299.576C298.22 300.827 297.122 301.946 297.122 303.326C297.122 304.706 298.22 305.825 299.576 305.825H327.36C328.715 305.825 329.814 304.706 329.814 303.326C329.814 301.946 328.715 300.827 327.36 300.827Z" fill="#C5C3C6"/>
<path d="M303.773 289.131H299.303C297.948 289.131 296.849 290.25 296.849 291.63C296.849 293.01 297.948 294.129 299.303 294.129H303.773C305.129 294.129 306.227 293.01 306.227 291.63C306.227 290.25 305.129 289.131 303.773 289.131Z" fill="#C5C3C6"/>
<path d="M354.9 289.131H350.43C349.075 289.131 347.976 290.25 347.976 291.63C347.976 293.01 349.075 294.129 350.43 294.129H354.9C356.256 294.129 357.354 293.01 357.354 291.63C357.354 290.25 356.256 289.131 354.9 289.131Z" fill="#C5C3C6"/>
<path d="M369.386 289.131H364.916C363.561 289.131 362.462 290.25 362.462 291.63C362.462 293.01 363.561 294.129 364.916 294.129H369.386C370.742 294.129 371.84 293.01 371.84 291.63C371.84 290.25 370.742 289.131 369.386 289.131Z" fill="#C5C3C6"/>
<path d="M340.994 289.548H313.21C311.854 289.548 310.756 290.667 310.756 292.047C310.756 293.427 311.854 294.546 313.21 294.546H340.994C342.349 294.546 343.448 293.427 343.448 292.047C343.448 290.667 342.349 289.548 340.994 289.548Z" fill="#C5C3C6"/>
<path d="M317.407 277.852H312.937C311.581 277.852 310.483 278.971 310.483 280.351C310.483 281.731 311.581 282.85 312.937 282.85H317.407C318.762 282.85 319.861 281.731 319.861 280.351C319.861 278.971 318.762 277.852 317.407 277.852Z" fill="#C5C3C6"/>
<path d="M368.534 277.852H364.064C362.708 277.852 361.61 278.971 361.61 280.351C361.61 281.731 362.708 282.85 364.064 282.85H368.534C369.89 282.85 370.988 281.731 370.988 280.351C370.988 278.971 369.89 277.852 368.534 277.852Z" fill="#C5C3C6"/>
<path d="M383.02 277.852H378.55C377.194 277.852 376.096 278.971 376.096 280.351C376.096 281.731 377.194 282.85 378.55 282.85H383.02C384.375 282.85 385.474 281.731 385.474 280.351C385.474 278.971 384.375 277.852 383.02 277.852Z" fill="#C5C3C6"/>
<path d="M354.627 278.269H326.843C325.488 278.269 324.389 279.387 324.389 280.767C324.389 282.147 325.488 283.266 326.843 283.266H354.627C355.983 283.266 357.082 282.147 357.082 280.767C357.082 279.387 355.983 278.269 354.627 278.269Z" fill="#C5C3C6"/>
<path d="M298.166 473.693C297.979 473.788 297.791 473.884 297.604 473.971C296.419 474.569 295.226 475.159 294.025 475.741C290.429 477.485 286.787 479.142 283.101 480.712C273.4 484.844 263.446 488.33 253.302 491.15C251.598 480.33 249.945 454.813 248.36 436.046C248.062 432.515 247.763 429.226 247.465 426.32C247.182 422.504 246.644 418.712 245.855 414.971C245.777 414.678 245.666 414.395 245.522 414.129C245.684 415.63 245.855 420.107 246.017 426.32C246.102 429.226 246.178 432.515 246.264 436.046C246.664 454.11 247.082 478.691 247.499 492.686C246.315 492.981 245.122 493.276 243.929 493.553C243.179 493.736 242.421 493.909 241.662 494.074C240.742 494.282 239.822 494.49 238.901 494.681C237.938 494.89 236.976 495.089 236.013 495.28C220.277 498.427 204.279 500.008 188.243 500C187.178 500 186.121 499.991 185.056 499.983C184.732 499.983 184.408 499.974 184.076 499.965C183.139 499.948 182.167 499.931 181.179 499.905C162.229 499.371 143.402 496.608 125.075 491.671L125.817 436.046L125.945 426.32L125.996 422.632C125.574 423.818 125.321 425.06 125.246 426.32C124.948 428.688 124.641 432.046 124.334 436.046C123.167 451.455 121.965 476.313 120.721 490.456C105.988 486.187 95.2173 482.291 81.7538 475.437C81.234 475.177 80.7057 474.908 80.1859 474.639C80.2796 473.971 80.3819 473.303 80.4756 472.617C82.0009 461.824 80.203 447.776 81.8902 436.046C83.1769 426.996 84.5061 418.302 85.844 410.927C87.463 402.051 89.1075 395.076 90.7351 391.683C92.6098 387.77 94.4845 383.918 96.2995 380.23C97.0835 378.642 97.8532 377.084 98.6087 375.554C99.0177 374.729 99.4267 373.914 99.8272 373.115C101.651 369.48 103.372 366.122 104.948 363.146C106.056 361.055 107.079 359.164 108.016 357.507C109.115 355.554 110.087 353.941 110.888 352.717C116.804 343.586 125.607 336.787 135.838 333.447L136.093 333.377L136.34 333.481L136.622 333.612L152.863 327.564L160.114 309.786L197.361 307.452L203.377 312.111L206.453 314.497L209.733 317.04L215.766 321.716L217.479 322.254L220.027 323.052L237.453 328.501L237.632 328.423L237.887 328.492C247.197 331.527 255.347 337.441 261.201 345.412C261.781 346.175 262.317 346.965 262.837 347.763C264.252 349.897 266.161 353.272 268.41 357.507C269.339 359.251 270.319 361.142 271.35 363.146C271.972 364.352 277.34 381.41 282.564 398.833C287.446 415.144 292.201 431.777 292.823 436.046C292.934 436.835 293.053 437.634 293.164 438.423C293.871 443.36 294.57 448.332 295.243 453.182C296.24 460.375 297.212 467.316 298.141 473.519C298.149 473.58 298.158 473.632 298.166 473.693Z" fill="#EF6603"/>
<path opacity="0.2" d="M258.694 410.887L251.454 382.436L245.061 406.986L258.694 410.887Z" fill="black"/>
<path d="M13.4884 410.557C13.8639 411.67 14.576 412.634 15.5226 413.309C16.4692 413.984 17.6016 414.336 18.7572 414.315L41.3313 413.724C42.4953 413.701 43.6208 413.295 44.5394 412.566C45.458 411.838 46.1204 410.827 46.4277 409.683L49.6222 374.902C50.7556 375.424 51.9894 375.683 53.2334 375.657C55.4161 375.601 57.4877 374.665 58.9924 373.054C60.4971 371.443 61.3116 369.289 61.2568 367.067C61.202 364.844 60.2824 362.735 58.7002 361.203C57.1181 359.671 55.003 358.841 52.8202 358.897C52.323 358.896 51.827 358.948 51.3408 359.054C50.812 358.471 50.1692 358.008 49.4539 357.694C48.7386 357.38 47.9666 357.221 47.1875 357.229L12.4633 358.142C12.1752 358.153 11.8887 358.189 11.6067 358.251C10.8452 358.395 10.123 358.704 9.4886 359.157C8.8542 359.609 8.32237 360.195 7.92892 360.874C7.53548 361.554 7.28954 362.311 7.20766 363.095C7.12578 363.88 7.20986 364.673 7.45424 365.421L13.4884 410.557ZM50.2773 372.54L52.5504 364.252C52.809 363.294 52.815 362.284 52.5678 361.324C52.6781 361.323 52.7754 361.27 52.8857 361.27C54.4443 361.237 55.9521 361.835 57.0785 362.932C58.2049 364.03 58.8579 365.537 58.8944 367.124C58.9309 368.711 58.3479 370.248 57.2732 371.398C56.1985 372.548 54.7198 373.217 53.1614 373.258C52.1538 373.29 51.1566 373.042 50.2773 372.54V372.54Z" fill="#EF6603"/>
<path d="M11.6068 358.25C12.3465 362.558 20.664 365.585 30.6651 365.059C39.8618 364.628 47.3815 361.34 48.7591 357.443C48.2493 357.289 47.7191 357.217 47.1875 357.229L12.4633 358.142C12.1752 358.153 11.8887 358.189 11.6068 358.25V358.25Z" fill="#F0A500"/>
<path d="M32.498 391.445C32.5437 391.433 32.5872 391.414 32.6266 391.387L37.529 388.12C37.5882 388.081 37.6369 388.027 37.6706 387.963C37.7044 387.9 37.722 387.829 37.7221 387.757C37.7221 387.685 37.7045 387.614 37.6708 387.551C37.6371 387.488 37.5885 387.434 37.5292 387.394L32.4338 383.996C32.387 383.965 32.3346 383.943 32.2795 383.932C32.2245 383.921 32.1679 383.921 32.1129 383.933C32.058 383.944 32.0058 383.967 31.9595 383.999C31.9131 384.031 31.8734 384.072 31.8426 384.12C31.8119 384.168 31.7907 384.221 31.7803 384.277C31.7699 384.333 31.7705 384.391 31.7821 384.447C31.7936 384.503 31.8159 384.556 31.8476 384.603C31.8793 384.65 31.9198 384.69 31.9669 384.721L36.518 387.756L32.1602 390.661C32.0758 390.717 32.0138 390.802 31.985 390.901C31.9563 390.999 31.9628 391.105 32.0033 391.199C32.0438 391.293 32.1157 391.369 32.2063 391.414C32.2969 391.459 32.4002 391.47 32.498 391.445H32.498Z" fill="#F0A500"/>
<path d="M24.755 391.808C24.8373 391.787 24.9115 391.741 24.968 391.677C25.0246 391.613 25.061 391.532 25.0725 391.447C25.0841 391.361 25.0703 391.274 25.0328 391.197C24.9954 391.119 24.9361 391.055 24.8624 391.012L20.3436 388.374L24.7112 385.07C24.7561 385.036 24.794 384.994 24.8227 384.945C24.8514 384.896 24.8703 384.842 24.8785 384.785C24.8866 384.729 24.8838 384.672 24.8702 384.617C24.8565 384.561 24.8324 384.509 24.799 384.464C24.7657 384.418 24.7238 384.379 24.6758 384.35C24.6279 384.321 24.5747 384.302 24.5194 384.293C24.4641 384.285 24.4077 384.288 24.3535 384.302C24.2992 384.316 24.2482 384.34 24.2034 384.374L19.3134 388.073C19.2566 388.116 19.2111 388.172 19.1812 388.238C19.1513 388.303 19.1378 388.375 19.1419 388.447C19.1461 388.518 19.1678 388.588 19.205 388.649C19.2423 388.71 19.2939 388.761 19.3553 388.797L24.4384 391.764C24.5343 391.82 24.6478 391.836 24.755 391.808V391.808Z" fill="#F0A500"/>
<path d="M32.0104 394.308C32.0516 394.298 32.091 394.281 32.1271 394.258C32.175 394.228 32.2166 394.189 32.2497 394.143C32.2828 394.097 32.3066 394.045 32.3199 393.99C32.3331 393.934 32.3356 393.877 32.327 393.821C32.3184 393.764 32.299 393.71 32.2699 393.662L25.3204 382.028C25.2614 381.93 25.1667 381.86 25.0571 381.833C24.9475 381.807 24.8319 381.825 24.7356 381.885C24.6394 381.944 24.5702 382.041 24.5434 382.152C24.5165 382.264 24.5342 382.381 24.5924 382.48L31.5418 394.113C31.5892 394.192 31.6603 394.254 31.7446 394.289C31.829 394.324 31.9221 394.331 32.0104 394.308V394.308Z" fill="#F0A500"/>
<path d="M669.039 474.637C668.52 474.906 667.991 475.175 667.471 475.435C654.008 482.289 643.237 486.185 628.504 490.454C627.26 476.311 626.058 451.453 624.891 436.044C624.584 432.044 624.278 428.686 623.979 426.318C623.904 425.058 623.652 423.816 623.229 422.63L623.281 426.318L623.408 436.044L624.15 491.669C605.823 496.606 586.997 499.369 568.046 499.903C567.058 499.929 566.086 499.946 565.149 499.963C564.817 499.972 564.493 499.981 564.169 499.981C563.104 499.989 562.047 499.998 560.982 499.998C541.012 500.013 521.114 497.557 501.726 492.684C502.144 478.689 502.561 454.108 502.962 436.044C503.047 432.513 503.123 429.224 503.209 426.318C503.371 420.105 503.541 415.628 503.703 414.127C503.559 414.393 503.448 414.676 503.371 414.969C502.581 418.71 502.043 422.502 501.76 426.318C501.462 429.224 501.164 432.513 500.865 436.044C499.28 454.811 497.627 480.329 495.923 491.148C485.779 488.328 475.825 484.842 466.125 480.71C461.012 478.541 455.99 476.201 451.059 473.691C451.996 467.444 452.976 460.442 453.982 453.18C454.766 447.549 455.575 441.762 456.402 436.044C457.68 427.211 501.104 331.831 511.338 328.491L511.594 328.421L511.772 328.499L529.198 323.05L531.746 322.252L533.459 321.714L539.492 317.038L542.773 314.495L545.849 312.109L551.865 307.45L589.111 309.784L596.362 327.562L612.604 333.61L612.885 333.48L613.132 333.375L613.387 333.445C623.618 336.785 632.421 343.584 638.337 352.715C639.138 353.939 640.11 355.552 641.209 357.505C642.146 359.162 643.169 361.053 644.277 363.144C645.853 366.12 647.574 369.478 649.398 373.114C649.798 373.912 650.208 374.727 650.617 375.552C651.375 377.079 652.145 378.638 652.926 380.228C654.741 383.916 656.615 387.768 658.49 391.681C660.118 395.074 661.762 402.05 663.381 410.926C664.719 418.301 666.048 426.994 667.335 436.044C669.022 447.774 667.224 461.822 668.75 472.615C668.843 473.301 668.946 473.969 669.039 474.637Z" fill="#EF6603"/>
<path d="M559.802 301.068C583.726 301.068 603.121 281.321 603.121 256.96C603.121 232.6 583.726 212.852 559.802 212.852C535.878 212.852 516.484 232.6 516.484 256.96C516.484 281.321 535.878 301.068 559.802 301.068Z" fill="#FFDDD2"/>
<path opacity="0.2" d="M490.529 410.887L497.77 382.436L504.163 406.986L490.529 410.887Z" fill="black"/>
<path d="M683.202 392.349C680.611 428.686 683.295 444.686 668.997 474.645C655.987 481.129 642.436 486.419 628.504 490.454C627.056 490.87 625.604 491.275 624.15 491.669C605.823 496.606 586.997 499.369 568.046 499.903C567.058 499.929 566.087 499.946 565.149 499.963C564.817 499.972 564.493 499.981 564.169 499.981C563.104 499.989 562.047 499.998 560.982 499.998C541.012 500.013 521.114 497.557 501.726 492.684C499.783 492.198 497.849 491.686 495.923 491.148C485.779 488.328 475.825 484.842 466.125 480.71C461.012 478.541 455.99 476.201 451.059 473.691C449.943 473.118 448.827 472.546 447.727 471.956C442.078 461.839 438.865 449.536 438.797 434.751C442.708 409.277 674.561 370.38 683.202 392.349Z" fill="#B2B2B2"/>
<path opacity="0.2" d="M683.195 398.572C683.327 396.323 683.475 393.999 683.648 391.579C675.007 369.61 443.154 408.507 439.243 433.981C439.254 436.316 439.352 438.583 439.517 440.796C448.989 415.653 669.252 378.684 683.195 398.572Z" fill="black"/>
<path d="M433.031 394.063L452.062 384.374L436.203 340.774L432.023 318.787C431.48 315.93 430.211 313.268 428.341 311.068C426.471 308.868 424.067 307.205 421.369 306.247C418.671 305.289 415.773 305.069 412.965 305.609C410.157 306.149 407.537 307.429 405.367 309.323V309.323C402.152 312.129 400.133 316.097 399.737 320.39C399.341 324.683 400.598 328.964 403.243 332.331L418.758 352.078L433.031 394.063Z" fill="#FFDDD2"/>
<path d="M452.062 376.3L426.688 389.219L445.944 450.656C447.327 455.068 449.806 459.041 453.14 462.19C456.475 465.339 460.552 467.558 464.977 468.63C470.432 469.953 476.16 469.472 481.329 467.257C486.498 465.042 490.84 461.209 493.725 456.312L544.788 367.193C548.407 361.052 549.524 353.714 547.9 346.746C546.277 339.777 542.042 333.732 536.1 329.9V329.9C532.904 327.839 529.318 326.487 525.575 325.93C521.832 325.374 518.016 325.626 514.375 326.671C510.734 327.716 507.35 329.53 504.443 331.994C501.536 334.459 499.171 337.519 497.503 340.975L466.335 408.597L452.062 376.3Z" fill="#EF6603"/>
<path d="M178.525 298.025C204.849 298.025 226.188 276.296 226.188 249.493C226.188 222.69 204.849 200.961 178.525 200.961C152.201 200.961 130.862 222.69 130.862 249.493C130.862 276.296 152.201 298.025 178.525 298.025Z" fill="#FFDDD2"/>
<path d="M131.434 216.049C135.31 210.73 140.88 206.949 145.14 201.945C147.478 199.2 149.419 196.089 152.047 193.631C156.93 189.065 163.759 187.194 170.385 186.961C177.647 186.771 184.851 188.325 191.413 191.496C197.976 194.667 203.713 199.367 208.161 205.215C211.624 203.147 215.087 201.08 218.551 199.012C219.919 202.679 221.288 206.346 222.656 210.013C223.779 209.019 225.211 208.462 226.699 208.441C228.187 208.42 229.634 208.936 230.784 209.897C231.934 210.858 232.712 212.203 232.981 213.693C233.25 215.183 232.993 216.722 232.254 218.037C233.078 215.444 236.855 214.894 238.937 216.607C241.019 218.32 241.576 221.369 241.237 224.072C240.81 227.038 239.522 229.807 237.538 232.022C235.555 234.237 232.965 235.797 230.104 236.502C225.584 237.527 220.324 236.45 216.706 239.394C213.806 241.753 212.931 246.05 209.971 248.331C206.324 251.143 201.169 249.843 196.636 250.464C188.704 251.551 182.424 259.811 183.377 267.902C182.659 265.349 181.905 262.722 180.276 260.648C178.647 258.574 175.904 257.172 173.406 257.934C169.277 259.195 168.601 264.925 169.602 269.195C172.256 280.518 182.315 298.82 182.315 298.82C169.254 304.066 153.694 299.105 143.616 289.151C133.539 279.196 128.29 265.101 126.004 250.995C124.065 239.034 124.34 225.785 131.434 216.049Z" fill="#161616"/>
<path d="M614.089 281.275C623.157 260.106 618.019 240.626 606.965 230.292V230.284C602.619 220.367 596.842 212.714 590.229 210.918C587.034 208.827 583.932 206.371 580.49 205.122C578.886 204.511 577.178 204.236 575.467 204.315C573.757 204.394 572.08 204.825 570.537 205.582L568.782 205.105C567.29 201.226 565.544 201.148 563.601 203.699C556.119 200.15 549.379 198.563 543.38 198.563C523.815 198.563 512.244 215.43 509.176 235.819L525.528 240.253L531.212 231.03L528.587 241.086L537.611 243.524C551.347 261.736 534.91 303.747 514.076 327.122C519.035 325.725 523.974 324.545 528.894 323.582L546.771 296.893L535.694 321.187C541.446 320.328 548.782 321.152 556.801 322.809C559.502 319.217 560.925 314.428 559.528 310.159C561.812 314.661 563.388 319.501 564.197 324.501C581.12 328.709 604.204 330.87 616.645 332.466C626.697 329.125 626.724 291.392 614.089 281.275Z" fill="#161616"/>
<path d="M619.988 209.268C626.63 224.411 613.228 230.925 600.951 230.741C589.857 230.574 580.429 222.639 579.862 211.356C579.59 205.938 581.443 200.632 585.014 196.605C588.584 192.578 593.579 190.16 598.9 189.884C609.98 189.307 615.464 198.953 619.988 209.268Z" fill="#EF6603"/>
<path d="M311.86 455.782L300.919 437.201L337.297 409.099L352.422 392.839C354.387 390.727 356.862 389.176 359.6 388.343C362.338 387.509 365.243 387.422 368.024 388.09C370.805 388.758 373.366 390.157 375.449 392.148C377.533 394.139 379.067 396.652 379.898 399.436V399.436C381.13 403.562 380.739 408.013 378.809 411.85C376.878 415.688 373.559 418.612 369.552 420.005L346.048 428.175L311.86 455.782Z" fill="#FFDDD2"/>
<path d="M319.767 455.169L302.733 469.624L298.141 473.519L297.604 473.971C296.419 474.569 295.226 475.159 294.025 475.741C290.429 477.485 286.788 479.142 283.101 480.712C273.4 484.844 263.446 488.33 253.302 491.15C251.376 491.688 249.442 492.2 247.499 492.686C246.315 492.981 245.122 493.276 243.929 493.553C243.179 493.736 242.421 493.909 241.662 494.074C240.742 494.282 239.822 494.49 238.901 494.681C237.939 494.89 236.976 495.089 236.013 495.28C233.422 492.77 231.359 489.749 229.95 486.402C228.541 483.055 227.814 479.452 227.815 475.81C227.815 475.576 227.815 475.333 227.824 475.09L230.559 403.657L231.769 371.996C231.956 364.836 234.885 358.035 239.93 353.045C244.976 348.054 251.739 345.271 258.773 345.29C259.591 345.29 260.4 345.334 261.201 345.412C261.781 346.175 262.318 346.965 262.837 347.763C264.252 349.897 266.161 353.272 268.41 357.507C269.339 359.251 270.319 361.142 271.35 363.146C271.972 364.352 277.34 381.41 282.564 398.833L280.263 417.027L276.105 449.824L293.164 438.423L305.179 430.389L306.602 432.81L310.309 439.109L317.467 451.256L319.767 455.169Z" fill="#EF6603"/>
<path d="M310.428 434.753C310.42 436.228 310.386 437.677 310.309 439.109C310.131 443.058 309.681 446.989 308.962 450.874C307.786 457.397 305.688 463.713 302.734 469.624C302.342 470.413 301.924 471.194 301.498 471.958C300.399 472.548 299.282 473.12 298.166 473.693C297.979 473.789 297.791 473.884 297.604 473.971C292.857 476.374 288.023 478.621 283.101 480.712C273.4 484.844 263.446 488.33 253.302 491.15C251.376 491.688 249.442 492.2 247.499 492.686C243.707 493.64 239.878 494.505 236.013 495.28C220.278 498.427 204.279 500.008 188.243 500C187.178 500 186.121 499.991 185.056 499.983C184.732 499.983 184.408 499.974 184.076 499.965C183.139 499.948 182.167 499.931 181.179 499.905C162.229 499.371 143.402 496.608 125.075 491.671C123.618 491.28 122.167 490.875 120.721 490.456C106.789 486.421 93.2382 481.131 80.2285 474.647C65.93 444.688 68.6142 428.688 66.0237 392.351C71.341 378.825 161.299 388.377 230.559 403.657C249.357 407.804 266.621 412.377 280.263 417.027C294.357 421.825 304.574 426.701 308.579 431.283C309.515 432.231 310.158 433.437 310.428 434.753V434.753Z" fill="#B2B2B2"/>
<path opacity="0.2" d="M66.0288 398.572C65.8965 396.323 65.7485 393.999 65.576 391.579C74.2165 369.61 306.069 408.507 309.98 433.981C309.97 436.316 309.872 438.583 309.707 440.796C300.235 415.653 79.9717 378.684 66.0288 398.572Z" fill="black"/>
</svg>
